<?xml version="1.0" encoding="utf-8"?>
<!-- Generator: Adobe Illustrator 27.5.0, SVG Export Plug-In . SVG Version: 6.00 Build 0)  -->
<svg version="1.1" xmlns="http://www.w3.org/2000/svg" xmlns:xlink="http://www.w3.org/1999/xlink" x="0px" y="0px"
	 viewBox="0 0 500 500" style="enable-background:new 0 0 500 500;" xml:space="preserve">
<g id="Floor">
	<ellipse style="fill:#F5F5F5;" cx="250" cy="341.194" rx="225.935" ry="133.11"/>
</g>
<g id="Shadows">
	<path style="fill:#E0E0E0;" d="M391.22,394.218l-69.179-39.94l71.435-41.346l-95.416-55.089l-83.669,48.427l-21.89-12.638
		c-7.713-4.453-17.238-4.357-24.859,0.251l-39.17,23.684c-3.703,2.239-3.648,7.629,0.099,9.792l24.723,14.273l-58.014,33.578
		l95.416,55.089l70.247-40.659l66.346,38.305c7.713,4.453,17.238,4.357,24.859-0.251l39.17-23.684
		C395.022,401.771,394.968,396.382,391.22,394.218z"/>
	<ellipse style="fill:#E0E0E0;" cx="82.393" cy="354.412" rx="19.001" ry="11.194"/>
</g>
<g id="Plant">
	<g>
		<g>
			<path style="fill:#BA68C8;" d="M82.955,321.345c0,0-13.506-13.189-5.82-35.281c4.308-12.383,18.581-21.475,26.71-22.329
				c0,0-4.41,5.081-6.352,10.711l-10.237,6.806l9.41-2.947l-2.004,8.055c0,0-8.753,5.292-10.049,6.447l9.435-2.466
				C94.048,290.341,93.325,313.146,82.955,321.345z"/>
			<path style="opacity:0.4;" d="M82.955,321.345c0,0-13.506-13.189-5.82-35.281c4.308-12.383,18.581-21.475,26.71-22.329
				c0,0-4.41,5.081-6.352,10.711l-10.237,6.806l9.41-2.947l-2.004,8.055c0,0-8.753,5.292-10.049,6.447l9.435-2.466
				C94.048,290.341,93.325,313.146,82.955,321.345z"/>
			<path style="fill:#FFFFFF;" d="M82.955,321.345c0,0-6.993-27.6,3.353-43.694C86.308,277.651,74.179,291.853,82.955,321.345z"/>
		</g>
		<path style="fill:#37474F;" d="M98.411,325.081l-16.525-0.207v-0.002l-0.085,0.001l-0.085-0.001v0.002l-16.525,0.207
			c0,0-0.183,20.357,6.086,28.641h0c1.731,2.202,5.791,3.748,10.523,3.748c4.74,0,8.804-1.551,10.531-3.759
			C98.594,345.42,98.411,325.081,98.411,325.081z"/>
		<ellipse style="fill:#455A64;" cx="81.802" cy="325.081" rx="16.61" ry="8.917"/>
		<g>
			<path style="fill:#263238;" d="M81.802,322.716c5.715,0,10.554,1.833,12.258,4.371c0.424-0.631,0.662-1.304,0.662-2.006
				c0-3.522-5.785-6.377-12.921-6.377c-7.136,0-12.921,2.855-12.921,6.377c0,0.702,0.238,1.375,0.662,2.006
				C71.248,324.549,76.088,322.716,81.802,322.716z"/>
			<g>
				<path style="fill:#E0E0E0;" d="M81.802,322.716c-5.714,0-10.554,1.833-12.258,4.371c1.705,2.538,6.544,4.371,12.258,4.371
					c5.715,0,10.554-1.833,12.258-4.371C92.356,324.549,87.517,322.716,81.802,322.716z"/>
			</g>
		</g>
		<g>
			<path style="fill:#BA68C8;" d="M82.005,328.189c0,0-6.401-0.249-11.892-8.75c-2.264-3.506-3.356-5.348-3.356-5.348l8.919-0.665
				l-9.992-2.498l-4.721-7.223l8.298-0.616c0,0-6.18-2.165-10.593-2.193c0,0-7.652-13.518-9.89-15.444
				c0,0,17.648,0.146,30.227,15.019C91.584,315.345,83.872,328.57,82.005,328.189z"/>
			<path style="fill:#FFFFFF;" d="M82.005,328.189c0,0,4.004-24.114-21.545-38.618C60.46,289.57,86.976,302.308,82.005,328.189z"/>
		</g>
		<g>
			<path style="fill:#BA68C8;" d="M82.005,328.189c0,0,5.799,0.378,11.553-6.775c2.373-2.95,3.531-4.509,3.531-4.509l-7.984-1.439
				l9.25-1.313l4.94-6.072l-7.429-1.337c0,0,5.78-1.371,9.764-0.981c0,0,8.177-11.475,10.377-13.003c0,0-15.936-1.53-28.686,10.704
				C74.573,315.699,80.286,328.357,82.005,328.189z"/>
			<path style="opacity:0.2;" d="M82.005,328.189c0,0,5.799,0.378,11.553-6.775c2.373-2.95,3.531-4.509,3.531-4.509l-7.984-1.439
				l9.25-1.313l4.94-6.072l-7.429-1.337c0,0,5.78-1.371,9.764-0.981c0,0,8.177-11.475,10.377-13.003c0,0-15.936-1.53-28.686,10.704
				C74.573,315.699,80.286,328.357,82.005,328.189z"/>
			<path style="fill:#FFFFFF;" d="M82.005,328.189c0,0-1.342-22.133,23.075-32.814C105.08,295.375,79.957,304.37,82.005,328.189z"/>
		</g>
	</g>
</g>
<g id="Character_1">
	<g>
		<g>
			<path style="fill:#263238;" d="M163.686,280.587l10.783,65.796c0.163,0.992,1.02,1.721,2.026,1.721l0,0
				c1.224,0,2.175-1.064,2.04-2.28l-7.565-67.878L163.686,280.587z"/>
			<path style="fill:#263238;" d="M200.906,258.458l10.783,65.796c0.163,0.992,1.02,1.721,2.025,1.721l0,0
				c1.224,0,2.175-1.064,2.04-2.28l-7.565-67.878L200.906,258.458z"/>
			<path style="fill:#263238;" d="M147.133,265.2l-10.64,56.7c-0.15,0.82-0.86,1.41-1.7,1.41c-1.05,0-1.86-0.94-1.71-1.98
				l7.86-52.55L147.133,265.2z"/>
			<path style="fill:#263238;" d="M184.773,244.05l-10.58,56.35c-0.15,0.82-0.86,1.41-1.7,1.41c-1.05,0-1.86-0.94-1.71-1.98
				l7.8-52.21L184.773,244.05z"/>
			<path style="fill:#BA68C8;" d="M181.704,239.76c-4.965-2.214-8.368-6.895-8.906-12.304c-1.716-17.264-7.796-52.842-28.401-40.998
				c-25.432,14.618-16.327,57.067-12.629,70.679c0.834,3.071,2.432,5.871,4.674,8.13c4.594,4.629,14.107,12.599,30.284,19.385
				c1.984,0.832,4.196,0.963,6.265,0.374c8.037-2.29,29.036-9.321,39.505-22.708c1.238-1.582,0.969-3.868-0.604-5.118
				C207.652,253.827,198.07,247.056,181.704,239.76z"/>
			<path style="fill:#BA68C8;" d="M213.254,259.879c0.043,0.849-0.193,1.716-0.757,2.437c-0.559,0.715-1.153,1.407-1.768,2.086l0,0
				c0,0,0,0,0,0c-0.336,0.371-0.681,0.737-1.033,1.097c-0.007,0.007-0.014,0.014-0.021,0.022c-0.348,0.356-0.704,0.707-1.065,1.053
				c-0.011,0.01-0.021,0.02-0.032,0.03c-0.362,0.345-0.73,0.686-1.105,1.021c-0.009,0.008-0.019,0.017-0.028,0.025
				c-0.378,0.338-0.761,0.67-1.151,0.997c-0.005,0.004-0.01,0.008-0.015,0.012c-5.937,4.986-13.143,8.779-19.585,11.518
				c-0.008,0.004-0.017,0.007-0.025,0.011c-0.401,0.17-0.798,0.336-1.193,0.498c-0.041,0.017-0.083,0.034-0.124,0.051
				c-0.37,0.151-0.735,0.299-1.098,0.443c-0.064,0.025-0.128,0.051-0.191,0.076c-0.345,0.137-0.686,0.269-1.024,0.4
				c-0.078,0.03-0.156,0.06-0.235,0.09c-0.322,0.123-0.64,0.243-0.955,0.361c-0.093,0.035-0.184,0.069-0.276,0.103
				c-0.297,0.11-0.591,0.217-0.88,0.322c-0.107,0.039-0.213,0.076-0.319,0.115c-0.275,0.098-0.546,0.195-0.814,0.288
				c-0.114,0.04-0.225,0.078-0.337,0.117c-0.254,0.088-0.506,0.175-0.753,0.259c-0.122,0.041-0.24,0.081-0.36,0.121
				c-0.231,0.078-0.461,0.155-0.684,0.228c-0.132,0.043-0.259,0.085-0.389,0.127c-0.206,0.067-0.412,0.134-0.611,0.198
				c-0.141,0.045-0.276,0.087-0.414,0.131c-0.178,0.056-0.358,0.113-0.531,0.167c-0.153,0.047-0.298,0.091-0.446,0.137
				c-0.15,0.046-0.302,0.093-0.447,0.136c-0.188,0.057-0.366,0.109-0.546,0.162c-0.092,0.027-0.189,0.056-0.278,0.083
				c-0.269,0.079-0.527,0.153-0.772,0.223c-2.07,0.59-4.281,0.459-6.265-0.374c-16.178-6.786-25.69-14.756-30.284-19.385
				c-2.242-2.258-3.839-5.059-4.674-8.129c-3.698-13.612-12.803-56.061,12.629-70.679c0.451-0.259,0.892-0.488,1.329-0.702
				c0.095-0.047,0.191-0.094,0.286-0.138c0.43-0.203,0.855-0.389,1.272-0.549c0.041-0.016,0.081-0.029,0.122-0.044
				c0.4-0.151,0.793-0.28,1.181-0.393c0.06-0.017,0.12-0.036,0.179-0.053c0.417-0.116,0.828-0.211,1.232-0.284
				c0.035-0.006,0.069-0.011,0.103-0.017c0.842-0.146,1.655-0.201,2.438-0.172c0.015,0.001,0.03,0.002,0.045,0.002
				c0.801,0.034,1.571,0.155,2.312,0.358c0,0,0,0,0,0c-4.063-1.795-9.023-1.714-13.94,1.113
				c-25.432,14.618-16.327,57.067-12.629,70.679l0.625,2.338c1.263,4.723,4.054,8.894,7.938,11.863l6.599,5.044v-0.003
				c5.343,4.109,12.924,8.903,23.212,13.221c1.99,0.835,4.208,0.977,6.284,0.386c8.033-2.288,29.039-9.319,39.512-22.71
				c0.467-0.597,0.707-1.292,0.753-1.994h0.016v-4.533L213.254,259.879z"/>
			<path style="opacity:0.3;" d="M213.254,259.879c0.043,0.849-0.193,1.716-0.757,2.437c-0.559,0.715-1.153,1.407-1.768,2.086l0,0
				c0,0,0,0,0,0c-0.336,0.371-0.681,0.737-1.033,1.097c-0.007,0.007-0.014,0.014-0.021,0.022c-0.348,0.356-0.704,0.707-1.065,1.053
				c-0.011,0.01-0.021,0.02-0.032,0.03c-0.362,0.345-0.73,0.686-1.105,1.021c-0.009,0.008-0.019,0.017-0.028,0.025
				c-0.378,0.338-0.761,0.67-1.151,0.997c-0.005,0.004-0.01,0.008-0.015,0.012c-5.937,4.986-13.143,8.779-19.585,11.518
				c-0.008,0.004-0.017,0.007-0.025,0.011c-0.401,0.17-0.798,0.336-1.193,0.498c-0.041,0.017-0.083,0.034-0.124,0.051
				c-0.37,0.151-0.735,0.299-1.098,0.443c-0.064,0.025-0.128,0.051-0.191,0.076c-0.345,0.137-0.686,0.269-1.024,0.4
				c-0.078,0.03-0.156,0.06-0.235,0.09c-0.322,0.123-0.64,0.243-0.955,0.361c-0.093,0.035-0.184,0.069-0.276,0.103
				c-0.297,0.11-0.591,0.217-0.88,0.322c-0.107,0.039-0.213,0.076-0.319,0.115c-0.275,0.098-0.546,0.195-0.814,0.288
				c-0.114,0.04-0.225,0.078-0.337,0.117c-0.254,0.088-0.506,0.175-0.753,0.259c-0.122,0.041-0.24,0.081-0.36,0.121
				c-0.231,0.078-0.461,0.155-0.684,0.228c-0.132,0.043-0.259,0.085-0.389,0.127c-0.206,0.067-0.412,0.134-0.611,0.198
				c-0.141,0.045-0.276,0.087-0.414,0.131c-0.178,0.056-0.358,0.113-0.531,0.167c-0.153,0.047-0.298,0.091-0.446,0.137
				c-0.15,0.046-0.302,0.093-0.447,0.136c-0.188,0.057-0.366,0.109-0.546,0.162c-0.092,0.027-0.189,0.056-0.278,0.083
				c-0.269,0.079-0.527,0.153-0.772,0.223c-2.07,0.59-4.281,0.459-6.265-0.374c-16.178-6.786-25.69-14.756-30.284-19.385
				c-2.242-2.258-3.839-5.059-4.674-8.129c-3.698-13.612-12.803-56.061,12.629-70.679c0.451-0.259,0.892-0.488,1.329-0.702
				c0.095-0.047,0.191-0.094,0.286-0.138c0.43-0.203,0.855-0.389,1.272-0.549c0.041-0.016,0.081-0.029,0.122-0.044
				c0.4-0.151,0.793-0.28,1.181-0.393c0.06-0.017,0.12-0.036,0.179-0.053c0.417-0.116,0.828-0.211,1.232-0.284
				c0.035-0.006,0.069-0.011,0.103-0.017c0.842-0.146,1.655-0.201,2.438-0.172c0.015,0.001,0.03,0.002,0.045,0.002
				c0.801,0.034,1.571,0.155,2.312,0.358c0,0,0,0,0,0c-4.063-1.795-9.023-1.714-13.94,1.113
				c-25.432,14.618-16.327,57.067-12.629,70.679l0.625,2.338c1.263,4.723,4.054,8.894,7.938,11.863l6.599,5.044v-0.003
				c5.343,4.109,12.924,8.903,23.212,13.221c1.99,0.835,4.208,0.977,6.284,0.386c8.033-2.288,29.039-9.319,39.512-22.71
				c0.467-0.597,0.707-1.292,0.753-1.994h0.016v-4.533L213.254,259.879z"/>
		</g>
		<g>
			<g>
				<path style="fill:#BA68C8;" d="M238.727,317.631c-2.1-13.362-4.781-34.731-6.32-47.367c-0.101-0.83-0.241-1.652-0.418-2.463
					c-1.54-7.053-6.161-13.049-12.364-16.742l-31.487-18.745l-21.378-11.243c0,0-5.69,16.485,0.921,26.563
					c5.501,8.387,29.787,18.791,37.003,22.294c7.216,3.503,7.373,4.457,7.223,9.142c-0.151,4.685-0.155,10.652,8.716,29.348
					c2.549,5.372,4.326,9.391,5.566,12.47C229.28,321.158,233.868,320.777,238.727,317.631z"/>
				<path style="fill:#263238;" d="M228.965,329.601c0,0-1.571,0.615-1.555,2.09c0.016,1.476,0.057,4.787,0.077,6.194
					c0.021,1.407-0.828,4.858,4.074,7.708c4.902,2.85,7.704,6.06,8.534,6.94c0.83,0.88,5.168,5.832,11.221,5.975
					c6.053,0.143,12.417-1.755,11.382-5.636c-0.261-0.979-5.346-4.354-5.346-4.354L228.965,329.601z"/>
				<path style="opacity:0.7;" d="M238.727,317.631c-2.1-13.362-4.781-34.731-6.32-47.367c-0.152-1.245-0.39-2.471-0.711-3.67
					c-1.753-6.543-6.198-12.039-12.018-15.504l-31.539-18.776l-21.378-11.243c0,0-5.69,16.485,0.921,26.563
					c5.501,8.387,29.787,18.791,37.003,22.294c7.216,3.503,7.373,4.457,7.223,9.142c-0.151,4.685-0.155,10.652,8.716,29.348
					c2.549,5.372,4.326,9.391,5.566,12.47C229.28,321.158,233.868,320.777,238.727,317.631z"/>
				<path style="fill:#945959;" d="M228.987,331.784c-0.014,0.558,0.114,1.103,0.381,1.594c0.587,1.08,1.93,3.104,4.737,5.636
					c4.242,3.826,18.303,18.797,23.248,9.503c0,0-14.527-13.914-16.452-19.637c-0.547-1.626-1.312-5.768-2.173-11.25
					c-4.859,3.146-9.447,3.526-12.538,3.258C228.914,327.655,229.035,329.861,228.987,331.784z"/>
			</g>
			<g>
				<path style="fill:#BA68C8;" d="M216.108,331.997c-2.1-13.362-4.781-34.731-6.32-47.367c-0.809-6.643-4.088-12.73-9.186-17.064
					l-37.79-32.128l-18.462-3.701c0,0-5.897,20.186,0.713,30.264c5.501,8.387,29.787,18.791,37.003,22.294
					c7.216,3.503,7.373,4.458,7.223,9.142c-0.151,4.685-0.155,10.652,8.716,29.348c2.549,5.372,4.326,9.391,5.566,12.47
					C206.661,335.523,211.25,335.142,216.108,331.997z"/>
				<path style="fill:#263238;" d="M206.347,343.967c0,0-1.571,0.615-1.556,2.09s0.057,4.787,0.077,6.194
					c0.021,1.407-0.828,4.858,4.074,7.708c4.902,2.851,7.704,6.06,8.534,6.94c0.83,0.88,5.167,5.832,11.221,5.975
					c6.053,0.142,12.417-1.755,11.382-5.636c-0.261-0.978-5.346-4.354-5.346-4.354L206.347,343.967z"/>
				<path style="opacity:0.7;" d="M216.108,331.997c-2.1-13.362-4.781-34.731-6.32-47.367c-0.809-6.643-4.088-12.73-9.186-17.064
					l-37.79-32.128l-18.462-3.701c0,0-5.897,20.186,0.713,30.264c5.501,8.387,29.787,18.791,37.003,22.294
					c7.216,3.503,7.373,4.458,7.223,9.142c-0.151,4.685-0.155,10.652,8.716,29.348c2.549,5.372,4.326,9.391,5.566,12.47
					C206.661,335.523,211.25,335.142,216.108,331.997z"/>
				<path style="fill:#945959;" d="M206.368,346.15c-0.014,0.558,0.114,1.103,0.381,1.594c0.587,1.08,1.93,3.104,4.737,5.636
					c4.242,3.826,18.303,18.798,23.248,9.503c0,0-14.527-13.914-16.452-19.637c-0.547-1.626-1.312-5.768-2.173-11.25
					c-4.858,3.146-9.447,3.527-12.537,3.258C206.295,342.021,206.416,344.227,206.368,346.15z"/>
			</g>
		</g>
		<path style="fill:#263238;" d="M172.767,126.81l-0.001,0.001c-1.611-0.45-3.359-0.807-5.258-1.051
			c-1.185-0.152-2.331-0.245-3.439-0.266c-8.387-0.255-14.635,2.86-18.158,8.492c-0.771,1.234-1.409,2.585-1.907,4.056
			c-0.911,2.643-1.371,5.646-1.353,8.966c0,0,0,6.137,0,9.255s-3.449,7.672-4.617,9.57c-1.168,1.898-2.888,4.484-1.322,7.885
			c1.566,3.401,5.972,3.028,5.972,3.028s0.395,6.098,11.04,5.253c10.645-0.845,24.968-5.409,27.99-6.599
			c3.022-1.19,4.293-8.927,1.078-11.468v-8.294c0,0,5.833-2.187,6.654-7.613c0.639-4.223-1.426-6.007-1.426-6.007
			s4.159-1.502,4.701-6.945C193.263,129.628,185.579,130.261,172.767,126.81z"/>
		<g>
			<path style="fill:#945959;" d="M233.722,183.204c0,0,9.336-6.916,10.928-14.884l-4.095-7.258l-2.428-1.679
				c0,0,2.746-7.886,0.494-9.435c-2.252-1.548-3.924,5.107-5.521,8.317c-1.596,3.211-3.489,7.121-3.489,7.121L233.722,183.204z"/>
			<path style="fill:#7D4242;" d="M239.082,170.726l-3.989-2.704c0,0-3.623-0.614-1.37,1.754c2.253,2.368,2.781,5.647,1.002,10.67
				C238.782,175.855,239.082,170.726,239.082,170.726z"/>
			<path style="fill:#945959;" d="M208.956,196.21l2.632,2.266l11.58-21.14l10.555,5.869c0,0-11.5,34.657-18.235,35.21
				c-6.735,0.553-16.236-9.023-16.236-9.023S199.233,199.721,208.956,196.21z"/>
			<path style="fill:#BA68C8;" d="M177.611,174.44c0,0,9.335-0.332,14.684,5.179c5.35,5.511,16.661,16.59,16.661,16.59
				s-7.263,3.501-9.704,13.181l-12.284-10.916L177.611,174.44z"/>
			<path style="opacity:0.6;" d="M177.611,174.44c0,0,9.335-0.332,14.684,5.179c5.35,5.511,16.661,16.59,16.661,16.59
				s-7.263,3.501-9.704,13.181l-12.284-10.916L177.611,174.44z"/>
			<g>
				<path style="fill:#BA68C8;" d="M246.126,174.959l3.944-6.711l-12.171-7.298c-0.008-0.005-0.016-0.01-0.024-0.014l-0.011-0.006
					l-0.001,0.002c-0.497-0.274-1.174-0.231-1.924,0.202c-1.521,0.878-2.755,3.014-2.755,4.771c0,0.754,0.237,1.301,0.617,1.627
					l-0.009,0.015l0.1,0.06c0.063,0.045,0.127,0.085,0.196,0.118L246.126,174.959z"/>
				<path style="opacity:0.2;" d="M246.126,174.959l3.944-6.711l-12.171-7.298c-0.008-0.005-0.016-0.01-0.024-0.014l-0.011-0.006
					l-0.001,0.002c-0.497-0.274-1.174-0.231-1.924,0.202c-1.521,0.878-2.755,3.014-2.755,4.771c0,0.754,0.237,1.301,0.617,1.627
					l-0.009,0.015l0.1,0.06c0.063,0.045,0.127,0.085,0.196,0.118L246.126,174.959z"/>
				<path style="fill:#BA68C8;" d="M250.814,169.989c0,1.757-1.233,3.893-2.755,4.771c-1.521,0.878-2.755,0.166-2.755-1.59
					c0-1.757,1.233-3.893,2.755-4.771C249.581,167.52,250.814,168.232,250.814,169.989z"/>
				<path style="fill:#455A64;" d="M259.366,176.708c0,0.688-0.483,1.524-1.079,1.868c-0.596,0.344-1.079,0.065-1.079-0.623
					c0-0.688,0.483-1.524,1.079-1.868C258.883,175.741,259.366,176.02,259.366,176.708z"/>
				<polygon style="fill:#455A64;" points="249.094,170.263 259.05,176.009 257.521,178.648 247.474,172.827 				"/>
				<path style="fill:#BA68C8;" d="M259.173,176.6c-0.08-0.001-0.2,0.05-0.3,0.11c-0.46,0.27-0.865,0.911-0.83,1.44
					c0.077,1.155,2.63,4.42,2.63,4.42l3.531-4.573C264.204,177.997,260.478,176.617,259.173,176.6z"/>
			</g>
			<path style="fill:#945959;" d="M238.128,159.383c0,0,2.939-3.075,4.978,0.385c2.039,3.46,0.364,10.945-2.372,7.777
				c-0.892-1.032-0.178-6.484-0.178-6.484L238.128,159.383z"/>
			<path style="fill:#945959;" d="M241.398,160.938c0,0,2.939-3.075,4.978,0.385c2.039,3.46,0.364,10.945-2.372,7.777
				c-0.892-1.032-0.178-6.484-0.178-6.484L241.398,160.938z"/>
			<path style="fill:#945959;" d="M244.339,162.643c0,0,2.542-2.659,4.306,0.333c1.764,2.993,0.315,9.467-2.052,6.727
				c-0.771-0.893-0.154-5.608-0.154-5.608L244.339,162.643z"/>
			<path style="fill:#455A64;" d="M249.405,170.956c0,0.688-0.483,1.524-1.079,1.868c-0.596,0.344-1.078,0.065-1.078-0.623
				c0-0.688,0.483-1.524,1.078-1.868C248.922,169.99,249.405,170.269,249.405,170.956z"/>
			<path style="fill:#945959;" d="M223.167,177.335c0,0,4.125-11.617,5.449-12.862c1.324-1.245,9.083-2.301,10.71-3.016
				c1.736-0.763,1.879,4.151-1.891,6.06c-1.723,0.873-2.95,1.31-2.95,1.31s1.984,2.392,1.629,5.881
				c-0.355,3.49-2.392,8.496-2.392,8.496L223.167,177.335z"/>
			<path style="fill:#7D4242;" d="M211.588,198.475c0,0-2.67,5.258-3.092,8.457c0,0-1.209-5.414,1.613-9.73L211.588,198.475z"/>
		</g>
		<path style="fill:#BA68C8;" d="M156.67,176.482c0,0-9.282,3.023-12.985,6.352l5.574,23.789l-4.908,25.113
			c0,0,5.172,8.575,25.297,8.575c9.52,0,16.094-9.35,16.094-9.35s-3.473-6.596-3.027-10.308c0.446-3.713,1.86-12.955,1.86-12.955
			s5.613-2.336,5.613-10.545c0-8.209-12.577-22.713-12.577-22.713l-9.14,0.034L156.67,176.482z"/>
		<path style="opacity:0.5;" d="M156.67,176.482c0,0-9.282,3.023-12.985,6.352l5.574,23.789l-4.908,25.113
			c0,0,5.172,8.575,25.297,8.575c9.52,0,16.094-9.35,16.094-9.35s-3.473-6.596-3.027-10.308c0.446-3.713,1.86-12.955,1.86-12.955
			s5.613-2.336,5.613-10.545c0-8.209-12.577-22.713-12.577-22.713l-9.14,0.034L156.67,176.482z"/>
		<g>
			<path style="fill:#263238;" d="M152.222,128.821c0,0-0.738-5.672-1.729-5.703c-0.991-0.032-1.489,4.79-1.489,4.79
				s-4.512-0.99-4.201,0.385c0.311,1.375,5.454,3.392,5.454,3.392L152.222,128.821z"/>
			<g>
				<g>
					<path style="fill:#945959;" d="M156.67,176.482l4.768,4.753c2.593,2.585,6.59,3.128,9.779,1.329l0,0
						c2.242-1.266,2.806-4.245,1.181-6.243l-1.504-1.848v-19.904H156.67V176.482z"/>
				</g>
			</g>
			<path style="fill:#7D4242;" d="M156.67,157.143v0.514c2.506,8.098,8.291,13.568,14.223,16.817v-20.395h-13.83L156.67,157.143z"/>
			<path style="fill:#945959;" d="M170.686,130.865c5.035,0.646,15.378,4.826,14.923,18.156c-0.455,13.33-2.959,23.399-9.884,23.506
				c-6.924,0.106-22.075-6.84-22-24.163C153.8,131.04,165.775,130.234,170.686,130.865z"/>
			<polygon style="fill:#7D4242;" points="175.847,154.435 174.85,162.203 179.577,161.39 			"/>
			<g>
				<path style="fill:#263238;" d="M169.169,153.419c-0.053,0.88,0.618,1.635,1.497,1.688c0.88,0.053,1.635-0.618,1.688-1.497
					c0.053-0.88-0.618-1.635-1.497-1.688C169.977,151.869,169.222,152.54,169.169,153.419z"/>
				<path style="fill:#263238;" d="M179.712,152.936c-0.053,0.88,0.618,1.636,1.497,1.688c0.88,0.053,1.635-0.618,1.688-1.497
					c0.053-0.88-0.618-1.635-1.497-1.688C180.52,151.386,179.764,152.057,179.712,152.936z"/>
				<path style="fill:#263238;" d="M183.443,149.831l-3.003-2.036c0,0,1.27-1.17,2.415-0.353
					C184,148.259,183.443,149.831,183.443,149.831z"/>
			</g>
			<path style="fill:#7D4242;" d="M177.313,163.703c0,0-2.533,0.231-4.298-1.151c0,0-0.294,2.263,1.603,2.696
				C176.514,165.681,177.313,163.703,177.313,163.703z"/>
			<path style="fill:#263238;" d="M182.876,136.982c0,0-4.227,17.948-29.031,15.341c0,0-5.152-19.033,10.369-23.011
				C179.735,125.336,182.876,136.982,182.876,136.982z"/>
			<path style="fill:#945959;" d="M157.543,154.18c0,0-0.989-5.31-4.712-5.119c-4.088,0.209-4.329,4.18-4.164,5.574
				c0.434,3.66,3.718,7.393,9.264,7.109L157.543,154.18z"/>
		</g>
		<g>
			<polygon style="fill:#37474F;" points="380.448,315.375 296.91,266.091 296.91,189.908 381.983,236.428 			"/>
			<path style="fill:#455A64;" d="M373.692,227.497c-4.84-2.102-10.636-2.089-15.854,0.924l-131.969,76.191
				c-20.772,11.993-33.569,34.157-33.569,58.143v60.929l-85.36-49.28v-60.929c0-23.986,12.796-46.15,33.568-58.143l131.969-76.191
				c5.896-3.404,12.529-2.979,17.688,0L373.692,227.497z"/>
			<path style="fill:#263238;" d="M197.188,421.179v-58.134c0-22.886,12.209-44.033,32.029-55.476l125.916-72.696
				c7.643-4.736,12.89-5.142,17.508-3.136c5.818,2.526,7.807,7.981,7.807,17.752v65.886l3.921-2.582V243.74
				c0-7.591-4.581-13.595-10.678-16.242c-4.84-2.102-10.636-2.089-15.854,0.924l-131.969,76.191
				c-20.772,11.993-33.569,34.157-33.569,58.143v60.929L197.188,421.179z"/>
		</g>
		<g>
			<g>
				<path style="fill:#945959;" d="M202.918,228.935c0,0,4.743-3.87,5.948-4.826c1.204-0.956,2.796-3.279,3.723-2.521
					c0.927,0.759,1.183,3.6-0.646,5.081L202.918,228.935z"/>
				<g>
					<path style="fill:#BA68C8;" d="M212.602,219.931v14.503c0,0.861,0.569,1.722,1.706,2.379c2.275,1.314,5.965,1.314,8.24,0
						c1.138-0.657,1.707-1.518,1.707-2.379v-14.503H212.602z"/>
					<path style="opacity:0.3;fill:#FFFFFF;" d="M212.602,219.931v14.503c0,0.861,0.569,1.722,1.706,2.379
						c2.275,1.314,5.965,1.314,8.24,0c1.138-0.657,1.707-1.518,1.707-2.379v-14.503H212.602z"/>
					<path style="fill:#BA68C8;" d="M222.548,217.572c2.275,1.314,2.275,3.444,0,4.757c-2.275,1.314-5.965,1.314-8.24,0
						c-2.275-1.314-2.275-3.444,0-4.757C216.584,216.259,220.273,216.259,222.548,217.572z"/>
					<path style="opacity:0.5;fill:#FFFFFF;" d="M222.548,217.572c2.275,1.314,2.275,3.444,0,4.757c-2.275,1.314-5.965,1.314-8.24,0
						c-2.275-1.314-2.275-3.444,0-4.757C216.584,216.259,220.273,216.259,222.548,217.572z"/>
				</g>
				<path style="fill:#BA68C8;" d="M214.796,215.544v4.122l0,0c0,0.537,0.355,1.074,1.064,1.483c1.419,0.819,3.719,0.819,5.137,0
					c0.709-0.41,1.064-0.946,1.064-1.483v-4.122H214.796z"/>
				<path style="opacity:0.3;fill:#FFFFFF;" d="M214.796,215.544v4.122l0,0c0,0.537,0.355,1.074,1.064,1.483
					c1.419,0.819,3.719,0.819,5.137,0c0.709-0.41,1.064-0.946,1.064-1.483v-4.122H214.796z"/>
				<path style="fill:#BA68C8;" d="M220.997,214.06c1.419,0.819,1.419,2.147,0,2.966c-1.419,0.819-3.719,0.819-5.137,0
					c-1.419-0.819-1.419-2.147,0-2.966C217.279,213.241,219.579,213.241,220.997,214.06z"/>
				<path style="opacity:0.5;fill:#FFFFFF;" d="M220.997,214.06c1.419,0.819,1.419,2.147,0,2.966c-1.419,0.819-3.719,0.819-5.137,0
					c-1.419-0.819-1.419-2.147,0-2.966C217.279,213.241,219.579,213.241,220.997,214.06z"/>
				<path style="fill:#BA68C8;" d="M220.342,214.438c1.057,0.61,1.057,1.6,0,2.21s-2.771,0.61-3.828,0s-1.057-1.6,0-2.21
					C217.572,213.828,219.286,213.828,220.342,214.438z"/>
				<path style="fill:#945959;" d="M168.049,223.42l-2.298-6.477c0,0-3.361-1.321-7.866,0.72c-5.287,2.396-4.698,8.23-4.698,8.23
					s1.551,3.639,5.184,9.682c3.632,6.043,22.18,4.683,26.403,4.388c4.223-0.295,15.35-0.8,15.35-0.8l1.067-9.427L168.049,223.42z"
					/>
				<path style="fill:#945959;" d="M212.248,241.166c2.07-1.035,5.178,0.962,8.325-0.753c3.147-1.714,5.978-6.931,4.779-8.257
					c-1.199-1.326-9.557-5.518-12.545-6.081c-2.987-0.563-11.617,3.661-11.617,3.661l-1.067,9.427
					C203.308,242.671,210.178,242.202,212.248,241.166z"/>
			</g>
			<path style="fill:#BA68C8;" d="M145.514,181.537c0,0,5.59-2.541,10.658,10.035c5.068,12.576,9.579,25.371,9.579,25.371
				s-10.106,1.314-12.564,8.95c0,0-11.151-26.652-13.015-31.704C137.56,187.108,142.307,183.377,145.514,181.537z"/>
			<path style="opacity:0.6;" d="M145.514,181.537c0,0,5.59-2.541,10.658,10.035c5.068,12.576,9.579,25.371,9.579,25.371
				s-10.106,1.314-12.564,8.95c0,0-11.151-26.652-13.015-31.704C137.56,187.108,142.307,183.377,145.514,181.537z"/>
		</g>
		<path style="fill:#37474F;" d="M106.94,313.474v60.929l85.36,49.28v-60.929c0-11.589,2.995-22.748,8.425-32.544l-85.121-49.71
			C110.022,290.399,106.94,301.716,106.94,313.474z"/>
		<g>
			<g>
				<path style="fill:#BA68C8;" d="M185.266,274.001h0.003V261.7h-11.454v12.301h0.013c-0.035,0.872,0.513,1.751,1.666,2.417
					c2.238,1.292,5.868,1.292,8.106,0C184.753,275.752,185.301,274.874,185.266,274.001z"/>
				<path style="fill:#BA68C8;" d="M183.6,259.317c2.238,1.292,2.238,3.388,0,4.68c-2.238,1.292-5.868,1.292-8.106,0
					c-2.238-1.292-2.238-3.388,0-4.68C177.732,258.025,181.361,258.025,183.6,259.317z"/>
				<path style="opacity:0.2;" d="M183.6,259.317c2.238,1.292,2.238,3.388,0,4.68c-2.238,1.292-5.868,1.292-8.106,0
					c-2.238-1.292-2.238-3.388,0-4.68C177.732,258.025,181.361,258.025,183.6,259.317z"/>
				<g>
					<path style="fill:#E0E0E0;" d="M175.799,253.47v7.189c-0.003,0.557,0.361,1.114,1.097,1.538c1.464,0.845,3.838,0.845,5.302,0
						c0.732-0.423,1.098-0.977,1.098-1.531l0,0v-7.196H175.799z"/>
					<path style="fill:#F5F5F5;" d="M182.198,251.939c1.464,0.845,1.464,2.216,0,3.061c-1.464,0.845-3.838,0.845-5.302,0
						c-1.464-0.845-1.464-2.216,0-3.061C178.36,251.094,180.734,251.094,182.198,251.939z"/>
				</g>
			</g>
			<g>
				<path style="fill:#BA68C8;" d="M200.319,266.807h0.003v-12.301h-11.454v12.301h0.013c-0.035,0.872,0.513,1.751,1.666,2.417
					c2.238,1.292,5.868,1.292,8.106,0C199.806,268.558,200.354,267.68,200.319,266.807z"/>
				<path style="opacity:0.2;" d="M200.319,266.807h0.003v-12.301h-11.454v12.301h0.013c-0.035,0.872,0.513,1.751,1.666,2.417
					c2.238,1.292,5.868,1.292,8.106,0C199.806,268.558,200.354,267.68,200.319,266.807z"/>
				<path style="fill:#BA68C8;" d="M198.653,252.123c2.239,1.292,2.238,3.388,0,4.68c-2.238,1.292-5.868,1.292-8.106,0
					c-2.238-1.292-2.238-3.388,0-4.68C192.785,250.831,196.415,250.831,198.653,252.123z"/>
				<path style="opacity:0.4;" d="M198.653,252.123c2.239,1.292,2.238,3.388,0,4.68c-2.238,1.292-5.868,1.292-8.106,0
					c-2.238-1.292-2.238-3.388,0-4.68C192.785,250.831,196.415,250.831,198.653,252.123z"/>
				<g>
					<path style="fill:#E0E0E0;" d="M190.852,246.276v7.189c-0.003,0.557,0.361,1.114,1.097,1.538c1.464,0.845,3.838,0.845,5.302,0
						c0.732-0.423,1.098-0.977,1.098-1.531l0,0v-7.196H190.852z"/>
					<path style="fill:#F5F5F5;" d="M197.251,244.745c1.464,0.845,1.464,2.216,0,3.061c-1.464,0.845-3.838,0.845-5.302,0
						c-1.464-0.845-1.464-2.216,0-3.061C193.413,243.9,195.787,243.9,197.251,244.745z"/>
				</g>
			</g>
			<g>
				<path style="fill:#BA68C8;" d="M215.373,259.613h0.003v-12.301h-11.454v12.301h0.013c-0.035,0.872,0.513,1.751,1.666,2.417
					c2.239,1.292,5.868,1.292,8.106,0C214.859,261.364,215.408,260.486,215.373,259.613z"/>
				<path style="opacity:0.4;" d="M215.373,259.613h0.003v-12.301h-11.454v12.301h0.013c-0.035,0.872,0.513,1.751,1.666,2.417
					c2.239,1.292,5.868,1.292,8.106,0C214.859,261.364,215.408,260.486,215.373,259.613z"/>
				<path style="fill:#BA68C8;" d="M213.706,244.93c2.238,1.292,2.238,3.388,0,4.68c-2.238,1.292-5.868,1.292-8.106,0
					c-2.238-1.292-2.238-3.388,0-4.68C207.839,243.637,211.468,243.637,213.706,244.93z"/>
				<path style="opacity:0.6;" d="M213.706,244.93c2.238,1.292,2.238,3.388,0,4.68c-2.238,1.292-5.868,1.292-8.106,0
					c-2.238-1.292-2.238-3.388,0-4.68C207.839,243.637,211.468,243.637,213.706,244.93z"/>
				<g>
					<path style="fill:#E0E0E0;" d="M205.906,239.082v7.189c-0.003,0.556,0.361,1.114,1.097,1.538c1.464,0.845,3.838,0.845,5.302,0
						c0.732-0.423,1.098-0.977,1.098-1.531l0,0v-7.196H205.906z"/>
					<path style="fill:#F5F5F5;" d="M212.304,237.551c1.464,0.845,1.464,2.216,0,3.061c-1.464,0.845-3.838,0.845-5.302,0
						c-1.464-0.845-1.464-2.216,0-3.061C208.467,236.706,210.84,236.706,212.304,237.551z"/>
				</g>
			</g>
			<g>
				<path style="fill:#EBEBEB;" d="M239.689,273.758l-31.648,18.272c-1.347,0.778-3.7,0.68-5.256-0.218l-9.123-5.279
					c-1.556-0.898-1.724-2.257-0.377-3.034l31.648-18.272c1.347-0.778,3.7-0.68,5.256,0.218l9.123,5.279
					C240.867,271.622,241.036,272.98,239.689,273.758z"/>
				<g>
					<path style="fill:#BA68C8;" d="M215.2,291.266L215.2,291.266c-0.966,0.558-2.652,0.488-3.768-0.156l-2.077-1.199
						c-1.115-0.644-1.236-1.618-0.271-2.175l0,0c0.966-0.557,2.652-0.488,3.768,0.156l2.077,1.199
						C216.045,289.735,216.166,290.709,215.2,291.266z"/>
					<path style="fill:#BA68C8;" d="M221.008,287.798L221.008,287.798c-0.966,0.558-2.652,0.488-3.768-0.156l-2.077-1.199
						c-1.115-0.644-1.236-1.618-0.271-2.175l0,0c0.966-0.557,2.652-0.488,3.768,0.156l2.077,1.199
						C221.852,286.267,221.973,287.241,221.008,287.798z"/>
					<path style="fill:#BA68C8;" d="M226.815,284.33L226.815,284.33c-0.966,0.558-2.653,0.488-3.768-0.156l-2.077-1.199
						c-1.115-0.644-1.236-1.618-0.27-2.175l0,0c0.966-0.557,2.652-0.488,3.768,0.156l2.077,1.199
						C227.66,282.799,227.781,283.772,226.815,284.33z"/>
					<path style="fill:#BA68C8;" d="M232.623,280.862L232.623,280.862c-0.966,0.558-2.652,0.488-3.768-0.156l-2.077-1.199
						c-1.115-0.644-1.236-1.618-0.271-2.175l0,0c0.966-0.557,2.652-0.488,3.768,0.156l2.077,1.199
						C233.467,279.331,233.588,280.304,232.623,280.862z"/>
					<path style="fill:#BA68C8;" d="M238.43,277.394L238.43,277.394c-0.966,0.558-2.652,0.488-3.768-0.156l-2.077-1.199
						c-1.115-0.644-1.236-1.618-0.271-2.175l0,0c0.966-0.557,2.653-0.488,3.768,0.156l2.077,1.199
						C239.275,275.862,239.396,276.836,238.43,277.394z"/>
					<path style="opacity:0.7;fill:#FFFFFF;" d="M215.2,291.266L215.2,291.266c-0.966,0.558-2.652,0.488-3.768-0.156l-2.077-1.199
						c-1.115-0.644-1.236-1.618-0.271-2.175l0,0c0.966-0.557,2.652-0.488,3.768,0.156l2.077,1.199
						C216.045,289.735,216.166,290.709,215.2,291.266z"/>
					<path style="opacity:0.5;fill:#FFFFFF;" d="M221.008,287.798L221.008,287.798c-0.966,0.558-2.652,0.488-3.768-0.156
						l-2.077-1.199c-1.115-0.644-1.236-1.618-0.271-2.175l0,0c0.966-0.557,2.652-0.488,3.768,0.156l2.077,1.199
						C221.852,286.267,221.973,287.241,221.008,287.798z"/>
					<path style="opacity:0.3;fill:#FFFFFF;" d="M226.815,284.33L226.815,284.33c-0.966,0.558-2.653,0.488-3.768-0.156l-2.077-1.199
						c-1.115-0.644-1.236-1.618-0.27-2.175l0,0c0.966-0.557,2.652-0.488,3.768,0.156l2.077,1.199
						C227.66,282.799,227.781,283.772,226.815,284.33z"/>
					<path style="opacity:0.1;fill:#FFFFFF;" d="M232.623,280.862L232.623,280.862c-0.966,0.558-2.652,0.488-3.768-0.156
						l-2.077-1.199c-1.115-0.644-1.236-1.618-0.271-2.175l0,0c0.966-0.557,2.652-0.488,3.768,0.156l2.077,1.199
						C233.467,279.331,233.588,280.304,232.623,280.862z"/>
				</g>
				<g>
					<path style="fill:#BA68C8;" d="M201.642,283.042L201.642,283.042c-0.966,0.557-2.652,0.488-3.768-0.156l-2.077-1.199
						c-1.115-0.644-1.236-1.618-0.271-2.175l0,0c0.966-0.557,2.653-0.488,3.768,0.156l2.077,1.199
						C202.486,281.51,202.607,282.484,201.642,283.042z"/>
					<path style="fill:#BA68C8;" d="M207.449,279.573L207.449,279.573c-0.966,0.557-2.652,0.488-3.768-0.156l-2.077-1.199
						c-1.115-0.644-1.236-1.618-0.271-2.175l0,0c0.966-0.557,2.652-0.488,3.768,0.156l2.077,1.199
						C208.294,278.042,208.415,279.016,207.449,279.573z"/>
					<path style="fill:#BA68C8;" d="M213.257,276.105L213.257,276.105c-0.966,0.558-2.652,0.488-3.768-0.156l-2.077-1.199
						c-1.115-0.644-1.236-1.618-0.271-2.175l0,0c0.966-0.557,2.653-0.488,3.768,0.156l2.077,1.199
						C214.101,274.574,214.222,275.548,213.257,276.105z"/>
					<path style="fill:#BA68C8;" d="M219.064,272.637L219.064,272.637c-0.966,0.557-2.652,0.488-3.767-0.156l-2.077-1.199
						c-1.115-0.644-1.236-1.618-0.27-2.175l0,0c0.966-0.557,2.652-0.488,3.768,0.156l2.077,1.199
						C219.909,271.106,220.03,272.08,219.064,272.637z"/>
					<path style="fill:#BA68C8;" d="M224.872,269.169L224.872,269.169c-0.966,0.557-2.652,0.488-3.768-0.156l-2.077-1.199
						c-1.115-0.644-1.236-1.618-0.27-2.175l0,0c0.966-0.557,2.652-0.488,3.768,0.156l2.077,1.199
						C225.716,267.638,225.837,268.612,224.872,269.169z"/>
					<path style="fill:#BA68C8;" d="M201.642,283.042L201.642,283.042c-0.966,0.557-2.652,0.488-3.768-0.156l-2.077-1.199
						c-1.115-0.644-1.236-1.618-0.271-2.175l0,0c0.966-0.557,2.653-0.488,3.768,0.156l2.077,1.199
						C202.486,281.51,202.607,282.484,201.642,283.042z"/>
					<path style="opacity:0.2;" d="M207.449,279.573L207.449,279.573c-0.966,0.557-2.652,0.488-3.768-0.156l-2.077-1.199
						c-1.115-0.644-1.236-1.618-0.271-2.175l0,0c0.966-0.557,2.652-0.488,3.768,0.156l2.077,1.199
						C208.294,278.042,208.415,279.016,207.449,279.573z"/>
					<path style="opacity:0.4;" d="M213.257,276.105L213.257,276.105c-0.966,0.558-2.652,0.488-3.768-0.156l-2.077-1.199
						c-1.115-0.644-1.236-1.618-0.271-2.175l0,0c0.966-0.557,2.653-0.488,3.768,0.156l2.077,1.199
						C214.101,274.574,214.222,275.548,213.257,276.105z"/>
					<path style="opacity:0.6;" d="M219.064,272.637L219.064,272.637c-0.966,0.557-2.652,0.488-3.767-0.156l-2.077-1.199
						c-1.115-0.644-1.236-1.618-0.27-2.175l0,0c0.966-0.557,2.652-0.488,3.768,0.156l2.077,1.199
						C219.909,271.106,220.03,272.08,219.064,272.637z"/>
					<path style="opacity:0.8;" d="M224.872,269.169L224.872,269.169c-0.966,0.557-2.652,0.488-3.768-0.156l-2.077-1.199
						c-1.115-0.644-1.236-1.618-0.27-2.175l0,0c0.966-0.557,2.652-0.488,3.768,0.156l2.077,1.199
						C225.716,267.638,225.837,268.612,224.872,269.169z"/>
				</g>
			</g>
		</g>
	</g>
</g>
<g id="Character_2">
	<g>
		<path style="fill:#455A64;" d="M283.403,354.576c0,0-5.082-0.11-6.606,0c-1.524,0.11-6.188,2.142-4.683,6.365
			c1.505,4.223,7.992,7.405,12.527,7.894c4.534,0.489,10.567,0.48,13.496,1.291c2.929,0.811,9.222,3.116,14.463-1.105
			c2.69-2.167,0.683-9.134,0.436-10.243c-0.247-1.109-0.436-2.325-0.436-2.325L283.403,354.576z"/>
		<path style="fill:#FFA8A7;" d="M299.467,350.521c0,0,0,0.02,0,0.997c0,0.977-3.135,2.067-8.02,2.535
			c-4.885,0.469-8.044,0.523-8.044,0.523s-2.466,2.918-1.143,5.275c1.324,2.357,4.985,2.244,8.408,2.244s10.567,1.362,13.617-1.832
			c3.05-3.194,8.314-3.811,8.314-3.811l-0.213-4.341L299.467,350.521z"/>
		<path style="fill:#BA68C8;" d="M321.749,285.194c0,0-18.833-6.871-22.282,6.66c-3.449,13.531,0,58.667,0,58.667
			s4.737,4.798,12.92,1.59c0,0,3.1-17.342,5.993-23.578c2.893-6.236,0.272-16.296-0.452-20.919L321.749,285.194z"/>
		<path style="opacity:0.5;" d="M321.749,285.194c0,0-18.833-6.871-22.282,6.66c-3.449,13.531,0,58.667,0,58.667
			s4.737,4.798,12.92,1.59c0,0,3.1-17.342,5.993-23.578c2.893-6.236,0.272-16.296-0.452-20.919L321.749,285.194z"/>
		<path style="fill:#455A64;" d="M255.549,370.94c0,0-5.082-0.11-6.606,0c-1.524,0.11-6.188,2.142-4.683,6.365
			c1.505,4.223,7.993,7.405,12.527,7.894c4.534,0.489,10.567,0.48,13.496,1.291c2.929,0.811,9.222,3.116,14.463-1.105
			c2.69-2.167,0.683-9.134,0.436-10.243c-0.247-1.109-0.436-2.325-0.436-2.325L255.549,370.94z"/>
		<path style="fill:#FFA8A7;" d="M271.613,366.885c0,0,0,0.02,0,0.997c0,0.977-3.135,2.067-8.02,2.535
			c-4.885,0.469-8.044,0.523-8.044,0.523s-2.466,2.917-1.143,5.275c1.324,2.357,4.985,2.244,8.408,2.244
			c3.423,0,10.567,1.362,13.617-1.832c3.05-3.194,8.314-3.811,8.314-3.811l-0.213-4.341L271.613,366.885z"/>
		<path style="fill:#BA68C8;" d="M298.646,295.12c0,0-19.093-5.341-22.542,8.19c-3.449,13.531-4.49,63.576-4.49,63.576
			s4.737,4.798,12.92,1.591c0,0,3.1-17.342,5.993-23.579c2.893-6.236,4.762-21.204,4.039-25.827L298.646,295.12z"/>
		<path style="opacity:0.5;" d="M298.646,295.12c0,0-19.093-5.341-22.542,8.19c-3.449,13.531-4.49,63.576-4.49,63.576
			s4.737,4.798,12.92,1.591c0,0,3.1-17.342,5.993-23.579c2.893-6.236,4.762-21.204,4.039-25.827L298.646,295.12z"/>
		<g>
			<path style="fill:#263238;" d="M325.042,349.414l12.473,76.815c0.163,0.992,1.02,1.721,2.026,1.721l0,0
				c1.224,0,2.175-1.064,2.04-2.28l-9.255-78.898L325.042,349.414z"/>
			<path style="fill:#263238;" d="M306.113,333.647l-13.76,65.238c-0.207,0.984-1.097,1.672-2.102,1.627l0,0
				c-1.222-0.056-2.125-1.162-1.934-2.37l10.64-67.465L306.113,333.647z"/>
			<path style="fill:#263238;" d="M348.162,309.884l-13.76,65.238c-0.207,0.984-1.097,1.672-2.102,1.627h0
				c-1.222-0.056-2.125-1.161-1.934-2.37l10.64-67.465L348.162,309.884z"/>
			<path style="fill:#263238;" d="M369.2,336.734l10.783,65.796c0.163,0.992,1.02,1.721,2.026,1.721l0,0
				c1.224,0,2.175-1.064,2.04-2.28l-7.565-67.879L369.2,336.734z"/>
		</g>
		<path style="fill:#BA68C8;" d="M291.575,324.962l0.601,1.654c1.437,2.951,4.052,5.656,7.742,8.164
			c14.003,9.518,27.284,19.651,33.392,13.251c6.108-6.399,16.162-35.25,18.547-43.631c0.435-1.528,0.927-2.982,1.446-4.4
			l-12.864-4.283c-6.266-2.086-13.141-1.201-18.673,2.405l-25.482,16.607c-3.147,2.051-4.567,4.661-4.609,5.606l-0.066,3.989
			C291.61,324.326,291.575,324.961,291.575,324.962z"/>
		<path style="fill:#BA68C8;" d="M321.749,285.194l58.189,19.288c0,0,2.29,20.483-23.602,31.202l-42.349-28.771
			C313.987,306.914,313.335,286.35,321.749,285.194z"/>
		<path style="opacity:0.5;" d="M321.749,285.194l58.189,19.288c0,0,2.29,20.483-23.602,31.202l-42.349-28.771
			C313.987,306.914,313.335,286.35,321.749,285.194z"/>
		<polygon style="fill:#BA68C8;" points="298.646,295.12 332.72,304.736 335.514,301.787 299.113,293.482 		"/>
		<polygon style="opacity:0.7;" points="298.646,295.12 332.72,304.736 335.514,301.787 299.113,293.482 		"/>
		<path style="fill:#BA68C8;" d="M369.2,310.927c0,0,2.262,28.883-31.164,28.883c-19.758,0-48.08-24.409-48.08-24.409l2.526-10.992
			l6.164-9.289l34.074,9.616L369.2,310.927z"/>
		<path style="opacity:0.5;" d="M369.2,310.927c0,0,2.262,28.883-31.164,28.883c-19.758,0-48.08-24.409-48.08-24.409l2.526-10.992
			l6.164-9.289l34.074,9.616L369.2,310.927z"/>
		<g>
			<path style="fill:#FFA8A7;" d="M335.514,241.281l-29.539-15.453c0,0-8.826,1.323-8.826,7.915c0,0,21.846,16.667,28.893,20.851
				S335.514,241.281,335.514,241.281z"/>
			<path style="fill:#FFA8A7;" d="M297.148,233.742c0,0-9.612-2.145-12.432-4.713c-2.109-1.921-5.243-1.273-5.65-2.891
				c-0.409-1.624,5.006-2.803,7.561-1.055c0,0-2.126-3.185-4.721-4.282c-0.904-0.382-1.801-0.732-2.704-1.103
				c-2.974-1.223,3.263-5.024,4.078-5.455c2.968-1.572,5.605-2.007,8.91-0.806c6.256,2.273,13.785,12.391,13.785,12.391
				L297.148,233.742z"/>
			<g>
				<path style="fill:#BA68C8;" d="M377.385,286.804c-0.864-5.98-0.98-12.043-0.342-18.051c0.639-6.015,1.352-13.385,1.352-16.295
					l-0.001,0c0.137-8.349-3.714-18.39-8.512-21.029l-6.842,1.259l-15.265,4.225l-7.12,1.483c0,0-13.986,13.641-13.986,29.641
					c0,0.705,0.095,1.384,0.235,2.047l-0.025,0.045l0.046,0.062c1.306,5.903,7.483,10.009,7.483,10.009s0.851,4.79,0.851,12.268
					c0,7.478-2.537,12.268-2.537,12.268s5.7,12.926,22.923,12.926c11.873,0,21.419-8.456,24.295-13.18L377.385,286.804z"/>
				<path style="opacity:0.6;fill:#FFFFFF;" d="M377.385,286.804c-0.864-5.98-0.98-12.043-0.342-18.051
					c0.639-6.015,1.352-13.385,1.352-16.295l-0.001,0c0.137-8.349-3.714-18.39-8.512-21.029l-6.842,1.259l-15.265,4.225l-7.12,1.483
					c0,0-13.986,13.641-13.986,29.641c0,0.705,0.095,1.384,0.235,2.047l-0.025,0.045l0.046,0.062
					c1.306,5.903,7.483,10.009,7.483,10.009s0.851,4.79,0.851,12.268c0,7.478-2.537,12.268-2.537,12.268s5.7,12.926,22.923,12.926
					c11.873,0,21.419-8.456,24.295-13.18L377.385,286.804z"/>
			</g>
			<path style="fill:#FFA8A7;" d="M359.35,237.087c-5.235,1.668-11.577-0.174-11.577-0.174v-17.701h15.12v14.301
				C362.893,233.512,362.305,236.146,359.35,237.087z"/>
			<polygon style="fill:#F28F8F;" points="335.612,207.756 335.612,216.148 330.698,214.639 			"/>
			<path style="fill:#E0E0E0;" d="M361.504,185.911c-3.273-0.855-14.71-3.179-24.879,5.316c-2.247,1.878-4.827,6.878-5.656,13.128
				c0,0,0.921,0.842,4.166,2.251L361.504,185.911z"/>
			<path style="fill:#FFA8A7;" d="M354.345,189.358c-4.998-0.549-15.929,1.068-18.593,14.009s-2.595,23.217,4.047,24.931
				c6.642,1.714,22.846-1.449,26.805-18.145S359.219,189.893,354.345,189.358z"/>
			<path style="fill:#E0E0E0;" d="M340.528,192.509c0,0-1.728,6.781,0.919,12.102c1.36,2.734,1.669,5.945,0.572,8.813
				c-0.539,1.408-1.279,2.827-2.293,3.968c0,0,3.547-0.617,5.092-5.224c0,0,2.151,4.605,2.606,7.785
				c0.455,3.18,2.362,5.857,8.287,7.498c2.878,0.797,6.562,0.428,8.46-0.751c0,0,5.803-3.954,8.132-7.185
				c2.329-3.231,7.369-14.703,2.14-23.683C369.214,186.852,355.951,179.333,340.528,192.509z"/>
			<path style="fill:#FFA8A7;" d="M345.205,212.168c0,0,0.657-5.507,4.485-5.561c4.203-0.059,4.716,3.993,4.641,5.432
				c-0.199,3.779-2.491,7.464-9.126,5.353V212.168z"/>
			<path style="fill:#BA68C8;" d="M371.811,224.076c0,2.409-1.953,4.362-4.362,4.362c-2.409,0-4.362-1.953-4.362-4.362
				c0-2.409,1.953-4.362,4.362-4.362C369.858,219.714,371.811,221.667,371.811,224.076z"/>
			<path style="fill:#E0E0E0;" d="M367.83,227.657c-0.853-0.7-1.518-1.62-1.759-2.697c-0.375-1.674,0.141-2.766,0.795-3.454
				c0.685-0.721,1.671-1.071,2.665-1.065c1.142,0.007,3.074,0.125,4.823,0.732c4.596,1.595,8.184,8.327,3.386,18.885
				c-1.425,3.135-1.826,7.781,0.892,9.474c0.313,0.195,0.181,0.669-0.188,0.666c-4.015-0.028-12.734-1.116-10.199-10.323
				C370.491,231.715,369.151,228.74,367.83,227.657z"/>
			<path style="fill:#E0E0E0;" d="M340.528,192.509c0,0-4.411,3.289-3.672,14.616c0,0,2.594,1.274,4.57,0.885
				c0,0-0.448-6.127,1.98-10.869L340.528,192.509z"/>
			<path style="fill:#FFA8A7;" d="M317.299,247.157l-22.02,9.184l-24.327-12.431c0,0-8.826,1.323-8.826,7.915
				c0,0,21.846,16.667,28.893,20.85c7.047,4.184,43.935-14.445,43.935-14.445L317.299,247.157z"/>
			<path style="fill:#BA68C8;" d="M308.655,249.983c0,0-2.348,10.257,5.762,18.128c0,0,32.639-9.881,30.293-23.295
				c-0.972-5.557-4.056-6.421-4.056-6.421s-2.607-1.028-12.743,3.302C317.774,246.028,308.655,249.983,308.655,249.983z"/>
			<path style="opacity:0.4;fill:#FFFFFF;" d="M308.655,249.983c0,0-2.348,10.257,5.762,18.128c0,0,32.639-9.881,30.293-23.295
				c-0.972-5.557-4.056-6.421-4.056-6.421s-2.607-1.028-12.743,3.302C317.774,246.028,308.655,249.983,308.655,249.983z"/>
			<path style="fill:#FFA8A7;" d="M270.951,243.91c0,0-1.23-5.343-3.905-7.173c-3.456-2.364-3.754-2.112-5.223-3.91
				c-0.939-1.15-2.225-0.893-2.173,1.184c0.052,2.076,1.75,3.237,1.75,3.237s-5.841-3.798-9.401-2.999
				c-3.56,0.799-11.299,4.995-8.084,7.941c1.462,1.34,5.852,0.658,8.602,3.287c2.75,2.629,3.654,4.825,9.607,6.349L270.951,243.91z"
				/>
		</g>
		<g>
			<g>
				<path style="fill:#BA68C8;" d="M291.676,320.335c0,0-0.774,5.448-0.774,6.514c0,1.066-0.011,5.016,7.049,10.69
					c7.06,5.674,22.769,15.545,29.855,16.56c16.435,2.354,23.261-57.786,41.446-72.384c15.533-12.469,24.262-11.896,24.262-11.896
					s-1.14-1.063-3.086-2.06c-3.672-1.882-31.205,5.528-39.993,36.411c-2.329,8.184-12.146,36.354-18.11,42.602
					c-5.964,6.248-18.932-3.645-32.605-12.939C293.983,329.932,291.676,325.408,291.676,320.335z"/>
				<path style="opacity:0.3;" d="M291.676,320.335c0,0-0.774,5.448-0.774,6.514c0,1.066-0.011,5.016,7.049,10.69
					c7.06,5.674,22.769,15.545,29.855,16.56c16.435,2.354,23.261-57.786,41.446-72.384c15.533-12.469,24.262-11.896,24.262-11.896
					s-1.14-1.063-3.086-2.06c-3.672-1.882-31.205,5.528-39.993,36.411c-2.329,8.184-12.146,36.354-18.11,42.602
					c-5.964,6.248-18.932-3.645-32.605-12.939C293.983,329.932,291.676,325.408,291.676,320.335z"/>
			</g>
			<path style="fill:#BA68C8;" d="M393.514,269.819c0,0-8.728-0.573-24.262,11.896c-18.185,14.598-25.011,74.738-41.446,72.384
				c9.659,3.654,27.838-6.92,44.789-15.823c16.951-8.903,17.713-12.074,21.388-27.2C401.85,278.699,396.423,271.79,393.514,269.819z
				"/>
		</g>
	</g>
</g>
<g id="Lamp">
	<g>
		<g>
			<path style="fill:#BA68C8;" d="M287.979,189.016c7.052,4.072,7.052,10.673,0,14.744c-7.052,4.072-18.486,4.072-25.538,0
				c-7.052-4.072-7.052-10.673,0-14.745C269.493,184.945,280.927,184.945,287.979,189.016z"/>
			<path style="fill:#BA68C8;" d="M287.979,203.76c-7.052,4.072-18.486,4.072-25.538,0c-3.438-1.985-5.187-4.572-5.273-7.173v2.287
				c-0.09,2.734,1.659,5.484,5.273,7.571c7.052,4.072,18.486,4.072,25.538,0c3.526-2.036,5.289-4.704,5.289-7.372v-2.684l0,0
				C293.268,199.057,291.505,201.725,287.979,203.76z"/>
			<path style="opacity:0.2;" d="M287.979,203.76c-7.052,4.072-18.486,4.072-25.538,0c-3.438-1.985-5.187-4.572-5.273-7.173v2.287
				c-0.09,2.734,1.659,5.484,5.273,7.571c7.052,4.072,18.486,4.072,25.538,0c3.526-2.036,5.289-4.704,5.289-7.372v-2.684l0,0
				C293.268,199.057,291.505,201.725,287.979,203.76z"/>
			<path style="fill:#BA68C8;" d="M269.07,198.045c1.298,0.749,1.298,1.964,0,2.713c-1.298,0.749-3.402,0.749-4.699,0
				c-1.298-0.749-1.298-1.964,0-2.713C265.668,197.296,267.772,197.296,269.07,198.045z"/>
			<path style="opacity:0.3;" d="M269.07,198.045c1.298,0.749,1.298,1.964,0,2.713c-1.298,0.749-3.402,0.749-4.699,0
				c-1.298-0.749-1.298-1.964,0-2.713C265.668,197.296,267.772,197.296,269.07,198.045z"/>
		</g>
		<path style="fill:#BA68C8;" d="M280.722,128.084c-11.585-6.121-23.169-12.242-34.754-18.363c-2.843-1.502-5.373,2.812-2.523,4.317
			c11.256,5.947,22.512,11.894,33.768,17.842c0,20.057,0,40.114,0,60.171c0,3.217,5,3.223,5,0c0-20.272,0-40.545,0-60.817
			C282.213,129.297,281.639,128.569,280.722,128.084z"/>
		<path style="opacity:0.3;fill:#FFFFFF;" d="M280.722,128.084c-11.585-6.121-23.169-12.242-34.754-18.363
			c-2.843-1.502-5.373,2.812-2.523,4.317c11.256,5.947,22.512,11.894,33.768,17.842c0,20.057,0,40.114,0,60.171c0,3.217,5,3.223,5,0
			c0-20.272,0-40.545,0-60.817C282.213,129.297,281.639,128.569,280.722,128.084z"/>
		<path style="fill:#BA68C8;" d="M253.472,118.027l-0.001-0.001c0.378-1.184,0.16-2.667-0.773-4.282
			c-2.231-3.864-7.656-6.996-12.118-6.996c-2.159,0-3.69,0.738-4.449,1.934l-0.002-0.001l-0.017,0.028
			c-0.033,0.053-0.065,0.106-0.095,0.16l-10.105,17.008l20.892,11.647l6.59-19.271c0.026-0.064,0.046-0.131,0.068-0.197
			L253.472,118.027z"/>
		<path style="opacity:0.7;fill:#FFFFFF;" d="M253.472,118.027l-0.001-0.001c0.378-1.184,0.16-2.667-0.773-4.282
			c-2.231-3.864-7.656-6.996-12.118-6.996c-2.159,0-3.69,0.738-4.449,1.934l-0.002-0.001l-0.017,0.028
			c-0.033,0.053-0.065,0.106-0.095,0.16l-10.105,17.008l20.892,11.647l6.59-19.271c0.026-0.064,0.046-0.131,0.068-0.197
			L253.472,118.027z"/>
		<path style="fill:#BA68C8;" d="M246.045,131.889c2.7,4.677,0.511,8.468-4.889,8.468c-5.4,0-11.967-3.791-14.667-8.468
			c-2.7-4.677-0.511-8.468,4.889-8.468C236.778,123.422,243.345,127.213,246.045,131.889z"/>
		<path style="opacity:0.5;fill:#FFFFFF;" d="M246.045,131.889c2.7,4.677,0.511,8.468-4.889,8.468c-5.4,0-11.967-3.791-14.667-8.468
			c-2.7-4.677-0.511-8.468,4.889-8.468C236.778,123.422,243.345,127.213,246.045,131.889z"/>
		<path style="fill:#BA68C8;" d="M243.889,132.085c2.199,3.592,0.568,6.415-3.641,6.307c-4.21-0.108-9.405-3.107-11.603-6.699
			c-2.199-3.592-0.568-6.415,3.642-6.307C236.496,125.494,241.691,128.494,243.889,132.085z"/>
		<path style="opacity:0.3;fill:#FFFFFF;" d="M243.889,132.085c2.199,3.592,0.568,6.415-3.641,6.307
			c-4.21-0.108-9.405-3.107-11.603-6.699c-2.199-3.592-0.568-6.415,3.642-6.307C236.496,125.494,241.691,128.494,243.889,132.085z"
			/>
		<g>
			<defs>
				<path id="SVGID_1_" d="M243.889,132.085c2.199,3.592,0.568,6.415-3.641,6.307c-4.21-0.108-9.405-3.107-11.603-6.699
					c-2.199-3.592-0.568-6.415,3.642-6.307C236.496,125.494,241.691,128.494,243.889,132.085z"/>
			</defs>
			<clipPath id="SVGID_00000118382783881357199090000001870364305675580806_">
				<use xlink:href="#SVGID_1_"  style="overflow:visible;"/>
			</clipPath>
			<path style="clip-path:url(#SVGID_00000118382783881357199090000001870364305675580806_);fill:#FFFFFF;" d="M242.604,129.503
				c0,2.739-2.22,4.96-4.96,4.96c-2.739,0-4.96-2.22-4.96-4.96c0-2.739,2.221-4.959,4.96-4.959
				C240.384,124.543,242.604,126.764,242.604,129.503z"/>
		</g>
	</g>
</g>
<g id="Shelf">
	<g>
		<g>
			<polygon style="fill:#37474F;" points="420.154,184.138 416.835,182.222 416.835,150.422 420.154,152.339 			"/>
			<polygon style="fill:#263238;" points="420.154,184.138 423.474,182.222 423.474,150.422 420.154,152.339 			"/>
		</g>
		<g>
			<g>
				<polygon style="fill:#37474F;" points="394.69,187.919 287.375,125.961 287.375,123.331 394.69,185.29 				"/>
				<polygon style="fill:#263238;" points="394.69,187.919 394.69,185.29 423.474,168.672 423.474,171.301 				"/>
				<polygon style="fill:#455A64;" points="394.69,185.29 287.375,123.331 316.158,106.713 423.474,168.672 				"/>
			</g>
			<g>
				<path style="fill:#BA68C8;" d="M320.955,127.014h0.004v-12.301h-11.454v12.301h0.013c-0.035,0.872,0.513,1.751,1.666,2.417
					c2.238,1.292,5.868,1.292,8.106,0C320.442,128.765,320.99,127.886,320.955,127.014z"/>
				<path style="fill:#BA68C8;" d="M319.289,112.33c2.238,1.292,2.238,3.388,0,4.68c-2.238,1.292-5.868,1.292-8.106,0
					c-2.238-1.292-2.238-3.388,0-4.68C313.421,111.037,317.05,111.037,319.289,112.33z"/>
				<path style="opacity:0.2;" d="M319.289,112.33c2.238,1.292,2.238,3.388,0,4.68c-2.238,1.292-5.868,1.292-8.106,0
					c-2.238-1.292-2.238-3.388,0-4.68C313.421,111.037,317.05,111.037,319.289,112.33z"/>
				<g>
					<path style="fill:#E0E0E0;" d="M311.488,106.482v7.189c-0.003,0.557,0.361,1.114,1.097,1.538c1.464,0.845,3.838,0.845,5.302,0
						c0.732-0.423,1.098-0.977,1.098-1.531l0,0v-7.196H311.488z"/>
					<path style="fill:#F5F5F5;" d="M317.887,104.952c1.464,0.845,1.464,2.216,0,3.061s-3.838,0.845-5.302,0
						c-1.464-0.845-1.464-2.216,0-3.061C314.049,104.106,316.422,104.106,317.887,104.952z"/>
				</g>
			</g>
			<g>
				<path style="fill:#BA68C8;" d="M336.993,136.234h0.004v-12.301h-11.454v12.301h0.013c-0.035,0.872,0.513,1.751,1.666,2.417
					c2.238,1.292,5.868,1.292,8.106,0C336.48,137.985,337.028,137.106,336.993,136.234z"/>
				<path style="opacity:0.2;fill:#FFFFFF;" d="M336.993,136.234h0.004v-12.301h-11.454v12.301h0.013
					c-0.035,0.872,0.513,1.751,1.666,2.417c2.238,1.292,5.868,1.292,8.106,0C336.48,137.985,337.028,137.106,336.993,136.234z"/>
				<path style="fill:#BA68C8;" d="M335.327,121.55c2.238,1.292,2.238,3.388,0,4.68c-2.239,1.292-5.868,1.292-8.106,0
					c-2.238-1.292-2.238-3.388,0-4.68C329.459,120.258,333.088,120.258,335.327,121.55z"/>
				<path style="fill:#BA68C8;" d="M335.327,121.55c2.238,1.292,2.238,3.388,0,4.68c-2.239,1.292-5.868,1.292-8.106,0
					c-2.238-1.292-2.238-3.388,0-4.68C329.459,120.258,333.088,120.258,335.327,121.55z"/>
				<g>
					<path style="fill:#E0E0E0;" d="M327.526,115.702v7.189c-0.003,0.557,0.361,1.114,1.097,1.538c1.464,0.845,3.838,0.845,5.302,0
						c0.732-0.423,1.098-0.977,1.098-1.53l0,0v-7.196H327.526z"/>
					<path style="fill:#F5F5F5;" d="M333.925,114.172c1.464,0.845,1.464,2.216,0,3.061c-1.464,0.845-3.838,0.845-5.302,0
						s-1.464-2.216,0-3.061S332.461,113.327,333.925,114.172z"/>
				</g>
			</g>
			<g>
				<path style="fill:#BA68C8;" d="M353.031,145.454h0.003v-12.301H341.58v12.301h0.013c-0.035,0.872,0.513,1.751,1.666,2.417
					c2.238,1.292,5.868,1.292,8.106,0C352.518,147.205,353.066,146.326,353.031,145.454z"/>
				<path style="opacity:0.4;fill:#FFFFFF;" d="M353.031,145.454h0.003v-12.301H341.58v12.301h0.013
					c-0.035,0.872,0.513,1.751,1.666,2.417c2.238,1.292,5.868,1.292,8.106,0C352.518,147.205,353.066,146.326,353.031,145.454z"/>
				<path style="fill:#BA68C8;" d="M351.365,130.77c2.238,1.292,2.238,3.388,0,4.68c-2.238,1.292-5.868,1.292-8.106,0
					c-2.238-1.292-2.238-3.388,0-4.68C345.497,129.478,349.126,129.478,351.365,130.77z"/>
				<path style="opacity:0.2;fill:#FFFFFF;" d="M351.365,130.77c2.238,1.292,2.238,3.388,0,4.68c-2.238,1.292-5.868,1.292-8.106,0
					c-2.238-1.292-2.238-3.388,0-4.68C345.497,129.478,349.126,129.478,351.365,130.77z"/>
				<g>
					<path style="fill:#E0E0E0;" d="M343.564,124.923v7.189c-0.004,0.556,0.361,1.114,1.097,1.538c1.464,0.845,3.838,0.845,5.302,0
						c0.732-0.423,1.098-0.977,1.098-1.531l0,0v-7.196H343.564z"/>
					<path style="fill:#F5F5F5;" d="M349.963,123.392c1.464,0.845,1.464,2.216,0,3.061c-1.464,0.845-3.838,0.845-5.302,0
						c-1.464-0.845-1.464-2.216,0-3.061C346.125,122.547,348.499,122.547,349.963,123.392z"/>
				</g>
			</g>
			<g>
				<path style="fill:#BA68C8;" d="M369.069,154.674h0.003v-12.301h-11.454v12.301h0.013c-0.035,0.872,0.513,1.751,1.666,2.417
					c2.238,1.292,5.868,1.292,8.106,0C368.556,156.425,369.104,155.547,369.069,154.674z"/>
				<path style="opacity:0.6;fill:#FFFFFF;" d="M369.069,154.674h0.003v-12.301h-11.454v12.301h0.013
					c-0.035,0.872,0.513,1.751,1.666,2.417c2.238,1.292,5.868,1.292,8.106,0C368.556,156.425,369.104,155.547,369.069,154.674z"/>
				<path style="fill:#BA68C8;" d="M367.403,139.99c2.238,1.292,2.238,3.388,0,4.68c-2.238,1.292-5.868,1.292-8.106,0
					c-2.238-1.292-2.238-3.388,0-4.68C361.535,138.698,365.165,138.698,367.403,139.99z"/>
				<path style="opacity:0.4;fill:#FFFFFF;" d="M367.403,139.99c2.238,1.292,2.238,3.388,0,4.68c-2.238,1.292-5.868,1.292-8.106,0
					c-2.238-1.292-2.238-3.388,0-4.68C361.535,138.698,365.165,138.698,367.403,139.99z"/>
				<g>
					<path style="fill:#E0E0E0;" d="M359.602,134.143v7.189c-0.003,0.556,0.361,1.114,1.097,1.538c1.464,0.845,3.838,0.845,5.302,0
						c0.732-0.423,1.098-0.977,1.098-1.531l0,0v-7.196H359.602z"/>
					<path style="fill:#F5F5F5;" d="M366.001,132.612c1.464,0.845,1.464,2.216,0,3.061c-1.464,0.845-3.838,0.845-5.302,0
						c-1.464-0.845-1.464-2.216,0-3.061C362.163,131.767,364.537,131.767,366.001,132.612z"/>
				</g>
			</g>
			<g>
				<path style="fill:#BA68C8;" d="M385.107,163.894h0.004v-12.301h-11.454v12.301h0.013c-0.035,0.872,0.513,1.751,1.666,2.417
					c2.238,1.292,5.868,1.292,8.106,0C384.594,165.645,385.142,164.767,385.107,163.894z"/>
				<path style="opacity:0.8;fill:#FFFFFF;" d="M385.107,163.894h0.004v-12.301h-11.454v12.301h0.013
					c-0.035,0.872,0.513,1.751,1.666,2.417c2.238,1.292,5.868,1.292,8.106,0C384.594,165.645,385.142,164.767,385.107,163.894z"/>
				<path style="fill:#BA68C8;" d="M383.441,149.21c2.238,1.292,2.238,3.388,0,4.68c-2.238,1.292-5.868,1.292-8.106,0
					c-2.238-1.292-2.238-3.388,0-4.68C377.574,147.918,381.203,147.918,383.441,149.21z"/>
				<path style="opacity:0.6;fill:#FFFFFF;" d="M383.441,149.21c2.238,1.292,2.238,3.388,0,4.68c-2.238,1.292-5.868,1.292-8.106,0
					c-2.238-1.292-2.238-3.388,0-4.68C377.574,147.918,381.203,147.918,383.441,149.21z"/>
				<g>
					<path style="fill:#E0E0E0;" d="M375.64,143.363v7.189c-0.003,0.557,0.361,1.114,1.097,1.538c1.464,0.845,3.838,0.845,5.302,0
						c0.732-0.423,1.098-0.977,1.098-1.531l0,0v-7.196H375.64z"/>
					<path style="fill:#F5F5F5;" d="M382.039,141.832c1.464,0.845,1.464,2.216,0,3.061c-1.464,0.845-3.838,0.845-5.302,0
						c-1.464-0.845-1.464-2.216,0-3.061C378.201,140.987,380.575,140.987,382.039,141.832z"/>
				</g>
			</g>
			<g>
				<path style="fill:#BA68C8;" d="M401.146,173.115h0.003v-12.301h-11.454v12.301h0.013c-0.035,0.872,0.513,1.751,1.666,2.417
					c2.238,1.292,5.868,1.292,8.106,0C400.632,174.865,401.18,173.987,401.146,173.115z"/>
				<path style="opacity:0.9;fill:#FFFFFF;" d="M401.146,173.115h0.003v-12.301h-11.454v12.301h0.013
					c-0.035,0.872,0.513,1.751,1.666,2.417c2.238,1.292,5.868,1.292,8.106,0C400.632,174.865,401.18,173.987,401.146,173.115z"/>
				<path style="fill:#BA68C8;" d="M399.479,158.431c2.238,1.292,2.238,3.388,0,4.68c-2.238,1.292-5.868,1.292-8.106,0
					c-2.238-1.292-2.238-3.388,0-4.68C393.612,157.138,397.241,157.138,399.479,158.431z"/>
				<path style="opacity:0.8;fill:#FFFFFF;" d="M399.479,158.431c2.238,1.292,2.238,3.388,0,4.68c-2.238,1.292-5.868,1.292-8.106,0
					c-2.238-1.292-2.238-3.388,0-4.68C393.612,157.138,397.241,157.138,399.479,158.431z"/>
				<g>
					<path style="fill:#E0E0E0;" d="M391.679,152.583v7.189c-0.003,0.557,0.361,1.114,1.097,1.538c1.464,0.845,3.838,0.845,5.302,0
						c0.732-0.423,1.098-0.977,1.098-1.531l0,0v-7.196H391.679z"/>
					<path style="fill:#F5F5F5;" d="M398.077,151.053c1.464,0.845,1.464,2.216,0,3.061c-1.464,0.845-3.838,0.845-5.302,0
						c-1.464-0.845-1.464-2.216,0-3.061C394.24,150.207,396.613,150.207,398.077,151.053z"/>
				</g>
			</g>
		</g>
		<g>
			<polygon style="fill:#37474F;" points="420.154,170.588 416.835,168.672 416.835,136.872 420.154,138.789 			"/>
			<polygon style="fill:#263238;" points="420.154,170.588 423.474,168.672 423.474,136.872 420.154,138.789 			"/>
		</g>
		<g>
			<g>
				<polygon style="fill:#37474F;" points="394.69,154.652 287.375,92.693 287.375,90.064 394.69,152.022 				"/>
				<polygon style="fill:#263238;" points="394.69,154.652 394.69,152.022 423.474,135.404 423.474,138.034 				"/>
				<polygon style="fill:#455A64;" points="394.69,152.022 287.375,90.064 316.158,73.446 423.474,135.404 				"/>
			</g>
			<g>
				<path style="fill:#BA68C8;" d="M320.955,93.746h0.004V81.445h-11.454v12.301h0.013c-0.035,0.872,0.513,1.751,1.666,2.417
					c2.238,1.292,5.868,1.292,8.106,0C320.442,95.497,320.99,94.619,320.955,93.746z"/>
				<path style="fill:#BA68C8;" d="M319.289,79.062c2.238,1.292,2.238,3.388,0,4.68c-2.238,1.292-5.868,1.292-8.106,0
					c-2.238-1.292-2.238-3.388,0-4.68C313.421,77.77,317.05,77.77,319.289,79.062z"/>
				<path style="opacity:0.2;fill:#FFFFFF;" d="M319.289,79.062c2.238,1.292,2.238,3.388,0,4.68c-2.238,1.292-5.868,1.292-8.106,0
					c-2.238-1.292-2.238-3.388,0-4.68C313.421,77.77,317.05,77.77,319.289,79.062z"/>
				<g>
					<path style="fill:#E0E0E0;" d="M311.488,73.215v7.189c-0.003,0.557,0.361,1.114,1.097,1.538c1.464,0.845,3.838,0.845,5.302,0
						c0.732-0.423,1.098-0.976,1.098-1.53l0,0v-7.196H311.488z"/>
					<path style="fill:#F5F5F5;" d="M317.887,71.684c1.464,0.845,1.464,2.216,0,3.061s-3.838,0.845-5.302,0
						c-1.464-0.845-1.464-2.216,0-3.061C314.049,70.839,316.422,70.839,317.887,71.684z"/>
				</g>
			</g>
			<g>
				<path style="fill:#BA68C8;" d="M336.993,102.966h0.004V90.666h-11.454v12.301h0.013c-0.035,0.872,0.513,1.751,1.666,2.417
					c2.238,1.292,5.868,1.292,8.106,0C336.48,104.717,337.028,103.839,336.993,102.966z"/>
				<path style="opacity:0.2;" d="M336.993,102.966h0.004V90.666h-11.454v12.301h0.013c-0.035,0.872,0.513,1.751,1.666,2.417
					c2.238,1.292,5.868,1.292,8.106,0C336.48,104.717,337.028,103.839,336.993,102.966z"/>
				<path style="fill:#BA68C8;" d="M335.327,88.283c2.238,1.292,2.238,3.388,0,4.68c-2.239,1.292-5.868,1.292-8.106,0
					c-2.238-1.292-2.238-3.388,0-4.68C329.459,86.99,333.088,86.99,335.327,88.283z"/>
				<path style="fill:#BA68C8;" d="M335.327,88.283c2.238,1.292,2.238,3.388,0,4.68c-2.239,1.292-5.868,1.292-8.106,0
					c-2.238-1.292-2.238-3.388,0-4.68C329.459,86.99,333.088,86.99,335.327,88.283z"/>
				<g>
					<path style="fill:#E0E0E0;" d="M327.526,82.435v7.189c-0.003,0.557,0.361,1.114,1.097,1.538c1.464,0.845,3.838,0.845,5.302,0
						c0.732-0.423,1.098-0.976,1.098-1.53l0,0v-7.196H327.526z"/>
					<path style="fill:#F5F5F5;" d="M333.925,80.904c1.464,0.845,1.464,2.216,0,3.061c-1.464,0.845-3.838,0.845-5.302,0
						s-1.464-2.216,0-3.061C330.087,80.059,332.461,80.059,333.925,80.904z"/>
				</g>
			</g>
			<g>
				<path style="fill:#BA68C8;" d="M353.031,112.187h0.003V99.886H341.58v12.301h0.013c-0.035,0.872,0.513,1.751,1.666,2.417
					c2.238,1.292,5.868,1.292,8.106,0C352.518,113.937,353.066,113.059,353.031,112.187z"/>
				<path style="opacity:0.4;" d="M353.031,112.187h0.003V99.886H341.58v12.301h0.013c-0.035,0.872,0.513,1.751,1.666,2.417
					c2.238,1.292,5.868,1.292,8.106,0C352.518,113.937,353.066,113.059,353.031,112.187z"/>
				<path style="fill:#BA68C8;" d="M351.365,97.503c2.238,1.292,2.238,3.388,0,4.68c-2.238,1.292-5.868,1.292-8.106,0
					c-2.238-1.292-2.238-3.388,0-4.68C345.497,96.21,349.126,96.21,351.365,97.503z"/>
				<path style="opacity:0.2;" d="M351.365,97.503c2.238,1.292,2.238,3.388,0,4.68c-2.238,1.292-5.868,1.292-8.106,0
					c-2.238-1.292-2.238-3.388,0-4.68C345.497,96.21,349.126,96.21,351.365,97.503z"/>
				<g>
					<path style="fill:#E0E0E0;" d="M343.564,91.655v7.189c-0.004,0.557,0.361,1.114,1.097,1.538c1.464,0.845,3.838,0.845,5.302,0
						c0.732-0.423,1.098-0.977,1.098-1.531l0,0v-7.196H343.564z"/>
					<path style="fill:#F5F5F5;" d="M349.963,90.125c1.464,0.845,1.464,2.216,0,3.061c-1.464,0.845-3.838,0.845-5.302,0
						c-1.464-0.845-1.464-2.216,0-3.061C346.125,89.279,348.499,89.279,349.963,90.125z"/>
				</g>
			</g>
			<g>
				<path style="fill:#BA68C8;" d="M369.069,121.407h0.003v-12.301h-11.454v12.301h0.013c-0.035,0.872,0.513,1.751,1.666,2.417
					c2.238,1.292,5.868,1.292,8.106,0C368.556,123.158,369.104,122.279,369.069,121.407z"/>
				<path style="opacity:0.6;" d="M369.069,121.407h0.003v-12.301h-11.454v12.301h0.013c-0.035,0.872,0.513,1.751,1.666,2.417
					c2.238,1.292,5.868,1.292,8.106,0C368.556,123.158,369.104,122.279,369.069,121.407z"/>
				<path style="fill:#BA68C8;" d="M367.403,106.723c2.238,1.292,2.238,3.388,0,4.68c-2.238,1.292-5.868,1.292-8.106,0
					c-2.238-1.292-2.238-3.388,0-4.68C361.535,105.43,365.165,105.43,367.403,106.723z"/>
				<path style="opacity:0.4;" d="M367.403,106.723c2.238,1.292,2.238,3.388,0,4.68c-2.238,1.292-5.868,1.292-8.106,0
					c-2.238-1.292-2.238-3.388,0-4.68C361.535,105.43,365.165,105.43,367.403,106.723z"/>
				<g>
					<path style="fill:#E0E0E0;" d="M359.602,100.875v7.189c-0.003,0.556,0.361,1.114,1.097,1.538c1.464,0.845,3.838,0.845,5.302,0
						c0.732-0.423,1.098-0.976,1.098-1.53l0,0v-7.196H359.602z"/>
					<path style="fill:#F5F5F5;" d="M366.001,99.345c1.464,0.845,1.464,2.216,0,3.061c-1.464,0.845-3.838,0.845-5.302,0
						s-1.464-2.216,0-3.061C362.163,98.499,364.537,98.499,366.001,99.345z"/>
				</g>
			</g>
			<g>
				<path style="fill:#BA68C8;" d="M385.107,130.627h0.004v-12.301h-11.454v12.301h0.013c-0.035,0.872,0.513,1.751,1.666,2.417
					c2.238,1.292,5.868,1.292,8.106,0C384.594,132.378,385.142,131.499,385.107,130.627z"/>
				<path style="opacity:0.7;" d="M385.107,130.627h0.004v-12.301h-11.454v12.301h0.013c-0.035,0.872,0.513,1.751,1.666,2.417
					c2.238,1.292,5.868,1.292,8.106,0C384.594,132.378,385.142,131.499,385.107,130.627z"/>
				<path style="fill:#BA68C8;" d="M383.441,115.943c2.238,1.292,2.238,3.388,0,4.68c-2.238,1.292-5.868,1.292-8.106,0
					c-2.238-1.292-2.238-3.388,0-4.68C377.574,114.651,381.203,114.651,383.441,115.943z"/>
				<path style="opacity:0.6;" d="M383.441,115.943c2.238,1.292,2.238,3.388,0,4.68c-2.238,1.292-5.868,1.292-8.106,0
					c-2.238-1.292-2.238-3.388,0-4.68C377.574,114.651,381.203,114.651,383.441,115.943z"/>
				<g>
					<path style="fill:#E0E0E0;" d="M375.64,110.095v7.189c-0.003,0.557,0.361,1.114,1.097,1.538c1.464,0.845,3.838,0.845,5.302,0
						c0.732-0.423,1.098-0.977,1.098-1.531l0,0v-7.196H375.64z"/>
					<path style="fill:#F5F5F5;" d="M382.039,108.565c1.464,0.845,1.464,2.216,0,3.061c-1.464,0.845-3.838,0.845-5.302,0
						c-1.464-0.845-1.464-2.216,0-3.061C378.201,107.72,380.575,107.72,382.039,108.565z"/>
				</g>
			</g>
			<g>
				<path style="fill:#BA68C8;" d="M401.146,139.847h0.003v-12.301h-11.454v12.301h0.013c-0.035,0.872,0.513,1.751,1.666,2.416
					c2.238,1.292,5.868,1.292,8.106,0C400.632,141.598,401.18,140.719,401.146,139.847z"/>
				<path style="opacity:0.8;" d="M401.146,139.847h0.003v-12.301h-11.454v12.301h0.013c-0.035,0.872,0.513,1.751,1.666,2.416
					c2.238,1.292,5.868,1.292,8.106,0C400.632,141.598,401.18,140.719,401.146,139.847z"/>
				<path style="fill:#BA68C8;" d="M399.479,125.163c2.238,1.292,2.238,3.388,0,4.68c-2.238,1.292-5.868,1.292-8.106,0
					c-2.238-1.292-2.238-3.388,0-4.68C393.612,123.871,397.241,123.871,399.479,125.163z"/>
				<path style="opacity:0.7;" d="M399.479,125.163c2.238,1.292,2.238,3.388,0,4.68c-2.238,1.292-5.868,1.292-8.106,0
					c-2.238-1.292-2.238-3.388,0-4.68C393.612,123.871,397.241,123.871,399.479,125.163z"/>
				<g>
					<path style="fill:#E0E0E0;" d="M391.679,119.316v7.189c-0.003,0.556,0.361,1.114,1.097,1.538c1.464,0.845,3.838,0.845,5.302,0
						c0.732-0.423,1.098-0.977,1.098-1.53l0,0v-7.196H391.679z"/>
					<path style="fill:#F5F5F5;" d="M398.077,117.785c1.464,0.845,1.464,2.216,0,3.061s-3.838,0.845-5.302,0
						c-1.464-0.845-1.464-2.216,0-3.061C394.24,116.94,396.613,116.94,398.077,117.785z"/>
				</g>
			</g>
		</g>
	</g>
	<g>
		<g>
			<polygon style="fill:#37474F;" points="420.154,184.138 416.835,182.222 416.835,150.422 420.154,152.339 			"/>
			<polygon style="fill:#263238;" points="420.154,184.138 423.474,182.222 423.474,150.422 420.154,152.339 			"/>
		</g>
		<g>
			<g>
				<polygon style="fill:#37474F;" points="394.69,187.919 287.375,125.961 287.375,123.331 394.69,185.29 				"/>
				<polygon style="fill:#263238;" points="394.69,187.919 394.69,185.29 423.474,168.672 423.474,171.301 				"/>
				<polygon style="fill:#455A64;" points="394.69,185.29 287.375,123.331 316.158,106.713 423.474,168.672 				"/>
			</g>
			<g>
				<path style="fill:#BA68C8;" d="M320.955,127.014h0.004v-12.301h-11.454v12.301h0.013c-0.035,0.872,0.513,1.751,1.666,2.417
					c2.238,1.292,5.868,1.292,8.106,0C320.442,128.765,320.99,127.886,320.955,127.014z"/>
				<path style="fill:#BA68C8;" d="M319.289,112.33c2.238,1.292,2.238,3.388,0,4.68c-2.238,1.292-5.868,1.292-8.106,0
					c-2.238-1.292-2.238-3.388,0-4.68C313.421,111.037,317.05,111.037,319.289,112.33z"/>
				<path style="opacity:0.2;" d="M319.289,112.33c2.238,1.292,2.238,3.388,0,4.68c-2.238,1.292-5.868,1.292-8.106,0
					c-2.238-1.292-2.238-3.388,0-4.68C313.421,111.037,317.05,111.037,319.289,112.33z"/>
				<g>
					<path style="fill:#E0E0E0;" d="M311.488,106.482v7.189c-0.003,0.557,0.361,1.114,1.097,1.538c1.464,0.845,3.838,0.845,5.302,0
						c0.732-0.423,1.098-0.977,1.098-1.531l0,0v-7.196H311.488z"/>
					<path style="fill:#F5F5F5;" d="M317.887,104.952c1.464,0.845,1.464,2.216,0,3.061s-3.838,0.845-5.302,0
						c-1.464-0.845-1.464-2.216,0-3.061C314.049,104.106,316.422,104.106,317.887,104.952z"/>
				</g>
			</g>
			<g>
				<path style="fill:#BA68C8;" d="M336.993,136.234h0.004v-12.301h-11.454v12.301h0.013c-0.035,0.872,0.513,1.751,1.666,2.417
					c2.238,1.292,5.868,1.292,8.106,0C336.48,137.985,337.028,137.106,336.993,136.234z"/>
				<path style="opacity:0.2;fill:#FFFFFF;" d="M336.993,136.234h0.004v-12.301h-11.454v12.301h0.013
					c-0.035,0.872,0.513,1.751,1.666,2.417c2.238,1.292,5.868,1.292,8.106,0C336.48,137.985,337.028,137.106,336.993,136.234z"/>
				<path style="fill:#BA68C8;" d="M335.327,121.55c2.238,1.292,2.238,3.388,0,4.68c-2.239,1.292-5.868,1.292-8.106,0
					c-2.238-1.292-2.238-3.388,0-4.68C329.459,120.258,333.088,120.258,335.327,121.55z"/>
				<path style="fill:#BA68C8;" d="M335.327,121.55c2.238,1.292,2.238,3.388,0,4.68c-2.239,1.292-5.868,1.292-8.106,0
					c-2.238-1.292-2.238-3.388,0-4.68C329.459,120.258,333.088,120.258,335.327,121.55z"/>
				<g>
					<path style="fill:#E0E0E0;" d="M327.526,115.702v7.189c-0.003,0.557,0.361,1.114,1.097,1.538c1.464,0.845,3.838,0.845,5.302,0
						c0.732-0.423,1.098-0.977,1.098-1.53l0,0v-7.196H327.526z"/>
					<path style="fill:#F5F5F5;" d="M333.925,114.172c1.464,0.845,1.464,2.216,0,3.061c-1.464,0.845-3.838,0.845-5.302,0
						s-1.464-2.216,0-3.061S332.461,113.327,333.925,114.172z"/>
				</g>
			</g>
			<g>
				<path style="fill:#BA68C8;" d="M353.031,145.454h0.003v-12.301H341.58v12.301h0.013c-0.035,0.872,0.513,1.751,1.666,2.417
					c2.238,1.292,5.868,1.292,8.106,0C352.518,147.205,353.066,146.326,353.031,145.454z"/>
				<path style="opacity:0.4;fill:#FFFFFF;" d="M353.031,145.454h0.003v-12.301H341.58v12.301h0.013
					c-0.035,0.872,0.513,1.751,1.666,2.417c2.238,1.292,5.868,1.292,8.106,0C352.518,147.205,353.066,146.326,353.031,145.454z"/>
				<path style="fill:#BA68C8;" d="M351.365,130.77c2.238,1.292,2.238,3.388,0,4.68c-2.238,1.292-5.868,1.292-8.106,0
					c-2.238-1.292-2.238-3.388,0-4.68C345.497,129.478,349.126,129.478,351.365,130.77z"/>
				<path style="opacity:0.2;fill:#FFFFFF;" d="M351.365,130.77c2.238,1.292,2.238,3.388,0,4.68c-2.238,1.292-5.868,1.292-8.106,0
					c-2.238-1.292-2.238-3.388,0-4.68C345.497,129.478,349.126,129.478,351.365,130.77z"/>
				<g>
					<path style="fill:#E0E0E0;" d="M343.564,124.923v7.189c-0.004,0.556,0.361,1.114,1.097,1.538c1.464,0.845,3.838,0.845,5.302,0
						c0.732-0.423,1.098-0.977,1.098-1.531l0,0v-7.196H343.564z"/>
					<path style="fill:#F5F5F5;" d="M349.963,123.392c1.464,0.845,1.464,2.216,0,3.061c-1.464,0.845-3.838,0.845-5.302,0
						c-1.464-0.845-1.464-2.216,0-3.061C346.125,122.547,348.499,122.547,349.963,123.392z"/>
				</g>
			</g>
			<g>
				<path style="fill:#BA68C8;" d="M369.069,154.674h0.003v-12.301h-11.454v12.301h0.013c-0.035,0.872,0.513,1.751,1.666,2.417
					c2.238,1.292,5.868,1.292,8.106,0C368.556,156.425,369.104,155.547,369.069,154.674z"/>
				<path style="opacity:0.6;fill:#FFFFFF;" d="M369.069,154.674h0.003v-12.301h-11.454v12.301h0.013
					c-0.035,0.872,0.513,1.751,1.666,2.417c2.238,1.292,5.868,1.292,8.106,0C368.556,156.425,369.104,155.547,369.069,154.674z"/>
				<path style="fill:#BA68C8;" d="M367.403,139.99c2.238,1.292,2.238,3.388,0,4.68c-2.238,1.292-5.868,1.292-8.106,0
					c-2.238-1.292-2.238-3.388,0-4.68C361.535,138.698,365.165,138.698,367.403,139.99z"/>
				<path style="opacity:0.4;fill:#FFFFFF;" d="M367.403,139.99c2.238,1.292,2.238,3.388,0,4.68c-2.238,1.292-5.868,1.292-8.106,0
					c-2.238-1.292-2.238-3.388,0-4.68C361.535,138.698,365.165,138.698,367.403,139.99z"/>
				<g>
					<path style="fill:#E0E0E0;" d="M359.602,134.143v7.189c-0.003,0.556,0.361,1.114,1.097,1.538c1.464,0.845,3.838,0.845,5.302,0
						c0.732-0.423,1.098-0.977,1.098-1.531l0,0v-7.196H359.602z"/>
					<path style="fill:#F5F5F5;" d="M366.001,132.612c1.464,0.845,1.464,2.216,0,3.061c-1.464,0.845-3.838,0.845-5.302,0
						c-1.464-0.845-1.464-2.216,0-3.061C362.163,131.767,364.537,131.767,366.001,132.612z"/>
				</g>
			</g>
			<g>
				<path style="fill:#BA68C8;" d="M385.107,163.894h0.004v-12.301h-11.454v12.301h0.013c-0.035,0.872,0.513,1.751,1.666,2.417
					c2.238,1.292,5.868,1.292,8.106,0C384.594,165.645,385.142,164.767,385.107,163.894z"/>
				<path style="opacity:0.8;fill:#FFFFFF;" d="M385.107,163.894h0.004v-12.301h-11.454v12.301h0.013
					c-0.035,0.872,0.513,1.751,1.666,2.417c2.238,1.292,5.868,1.292,8.106,0C384.594,165.645,385.142,164.767,385.107,163.894z"/>
				<path style="fill:#BA68C8;" d="M383.441,149.21c2.238,1.292,2.238,3.388,0,4.68c-2.238,1.292-5.868,1.292-8.106,0
					c-2.238-1.292-2.238-3.388,0-4.68C377.574,147.918,381.203,147.918,383.441,149.21z"/>
				<path style="opacity:0.6;fill:#FFFFFF;" d="M383.441,149.21c2.238,1.292,2.238,3.388,0,4.68c-2.238,1.292-5.868,1.292-8.106,0
					c-2.238-1.292-2.238-3.388,0-4.68C377.574,147.918,381.203,147.918,383.441,149.21z"/>
				<g>
					<path style="fill:#E0E0E0;" d="M375.64,143.363v7.189c-0.003,0.557,0.361,1.114,1.097,1.538c1.464,0.845,3.838,0.845,5.302,0
						c0.732-0.423,1.098-0.977,1.098-1.531l0,0v-7.196H375.64z"/>
					<path style="fill:#F5F5F5;" d="M382.039,141.832c1.464,0.845,1.464,2.216,0,3.061c-1.464,0.845-3.838,0.845-5.302,0
						c-1.464-0.845-1.464-2.216,0-3.061C378.201,140.987,380.575,140.987,382.039,141.832z"/>
				</g>
			</g>
			<g>
				<path style="fill:#BA68C8;" d="M401.146,173.115h0.003v-12.301h-11.454v12.301h0.013c-0.035,0.872,0.513,1.751,1.666,2.417
					c2.238,1.292,5.868,1.292,8.106,0C400.632,174.865,401.18,173.987,401.146,173.115z"/>
				<path style="opacity:0.9;fill:#FFFFFF;" d="M401.146,173.115h0.003v-12.301h-11.454v12.301h0.013
					c-0.035,0.872,0.513,1.751,1.666,2.417c2.238,1.292,5.868,1.292,8.106,0C400.632,174.865,401.18,173.987,401.146,173.115z"/>
				<path style="fill:#BA68C8;" d="M399.479,158.431c2.238,1.292,2.238,3.388,0,4.68c-2.238,1.292-5.868,1.292-8.106,0
					c-2.238-1.292-2.238-3.388,0-4.68C393.612,157.138,397.241,157.138,399.479,158.431z"/>
				<path style="opacity:0.8;fill:#FFFFFF;" d="M399.479,158.431c2.238,1.292,2.238,3.388,0,4.68c-2.238,1.292-5.868,1.292-8.106,0
					c-2.238-1.292-2.238-3.388,0-4.68C393.612,157.138,397.241,157.138,399.479,158.431z"/>
				<g>
					<path style="fill:#E0E0E0;" d="M391.679,152.583v7.189c-0.003,0.557,0.361,1.114,1.097,1.538c1.464,0.845,3.838,0.845,5.302,0
						c0.732-0.423,1.098-0.977,1.098-1.531l0,0v-7.196H391.679z"/>
					<path style="fill:#F5F5F5;" d="M398.077,151.053c1.464,0.845,1.464,2.216,0,3.061c-1.464,0.845-3.838,0.845-5.302,0
						c-1.464-0.845-1.464-2.216,0-3.061C394.24,150.207,396.613,150.207,398.077,151.053z"/>
				</g>
			</g>
		</g>
		<g>
			<polygon style="fill:#37474F;" points="420.154,170.588 416.835,168.672 416.835,136.872 420.154,138.789 			"/>
			<polygon style="fill:#263238;" points="420.154,170.588 423.474,168.672 423.474,136.872 420.154,138.789 			"/>
		</g>
		<g>
			<g>
				<polygon style="fill:#37474F;" points="394.69,154.652 287.375,92.693 287.375,90.064 394.69,152.022 				"/>
				<polygon style="fill:#263238;" points="394.69,154.652 394.69,152.022 423.474,135.404 423.474,138.034 				"/>
				<polygon style="fill:#455A64;" points="394.69,152.022 287.375,90.064 316.158,73.446 423.474,135.404 				"/>
			</g>
			<g>
				<path style="fill:#BA68C8;" d="M320.955,93.746h0.004V81.445h-11.454v12.301h0.013c-0.035,0.872,0.513,1.751,1.666,2.417
					c2.238,1.292,5.868,1.292,8.106,0C320.442,95.497,320.99,94.619,320.955,93.746z"/>
				<path style="fill:#BA68C8;" d="M319.289,79.062c2.238,1.292,2.238,3.388,0,4.68c-2.238,1.292-5.868,1.292-8.106,0
					c-2.238-1.292-2.238-3.388,0-4.68C313.421,77.77,317.05,77.77,319.289,79.062z"/>
				<path style="opacity:0.2;fill:#FFFFFF;" d="M319.289,79.062c2.238,1.292,2.238,3.388,0,4.68c-2.238,1.292-5.868,1.292-8.106,0
					c-2.238-1.292-2.238-3.388,0-4.68C313.421,77.77,317.05,77.77,319.289,79.062z"/>
				<g>
					<path style="fill:#E0E0E0;" d="M311.488,73.215v7.189c-0.003,0.557,0.361,1.114,1.097,1.538c1.464,0.845,3.838,0.845,5.302,0
						c0.732-0.423,1.098-0.976,1.098-1.53l0,0v-7.196H311.488z"/>
					<path style="fill:#F5F5F5;" d="M317.887,71.684c1.464,0.845,1.464,2.216,0,3.061s-3.838,0.845-5.302,0
						c-1.464-0.845-1.464-2.216,0-3.061C314.049,70.839,316.422,70.839,317.887,71.684z"/>
				</g>
			</g>
			<g>
				<path style="fill:#BA68C8;" d="M336.993,102.966h0.004V90.666h-11.454v12.301h0.013c-0.035,0.872,0.513,1.751,1.666,2.417
					c2.238,1.292,5.868,1.292,8.106,0C336.48,104.717,337.028,103.839,336.993,102.966z"/>
				<path style="opacity:0.2;" d="M336.993,102.966h0.004V90.666h-11.454v12.301h0.013c-0.035,0.872,0.513,1.751,1.666,2.417
					c2.238,1.292,5.868,1.292,8.106,0C336.48,104.717,337.028,103.839,336.993,102.966z"/>
				<path style="fill:#BA68C8;" d="M335.327,88.283c2.238,1.292,2.238,3.388,0,4.68c-2.239,1.292-5.868,1.292-8.106,0
					c-2.238-1.292-2.238-3.388,0-4.68C329.459,86.99,333.088,86.99,335.327,88.283z"/>
				<path style="fill:#BA68C8;" d="M335.327,88.283c2.238,1.292,2.238,3.388,0,4.68c-2.239,1.292-5.868,1.292-8.106,0
					c-2.238-1.292-2.238-3.388,0-4.68C329.459,86.99,333.088,86.99,335.327,88.283z"/>
				<g>
					<path style="fill:#E0E0E0;" d="M327.526,82.435v7.189c-0.003,0.557,0.361,1.114,1.097,1.538c1.464,0.845,3.838,0.845,5.302,0
						c0.732-0.423,1.098-0.976,1.098-1.53l0,0v-7.196H327.526z"/>
					<path style="fill:#F5F5F5;" d="M333.925,80.904c1.464,0.845,1.464,2.216,0,3.061c-1.464,0.845-3.838,0.845-5.302,0
						s-1.464-2.216,0-3.061C330.087,80.059,332.461,80.059,333.925,80.904z"/>
				</g>
			</g>
			<g>
				<path style="fill:#BA68C8;" d="M353.031,112.187h0.003V99.886H341.58v12.301h0.013c-0.035,0.872,0.513,1.751,1.666,2.417
					c2.238,1.292,5.868,1.292,8.106,0C352.518,113.937,353.066,113.059,353.031,112.187z"/>
				<path style="opacity:0.4;" d="M353.031,112.187h0.003V99.886H341.58v12.301h0.013c-0.035,0.872,0.513,1.751,1.666,2.417
					c2.238,1.292,5.868,1.292,8.106,0C352.518,113.937,353.066,113.059,353.031,112.187z"/>
				<path style="fill:#BA68C8;" d="M351.365,97.503c2.238,1.292,2.238,3.388,0,4.68c-2.238,1.292-5.868,1.292-8.106,0
					c-2.238-1.292-2.238-3.388,0-4.68C345.497,96.21,349.126,96.21,351.365,97.503z"/>
				<path style="opacity:0.2;" d="M351.365,97.503c2.238,1.292,2.238,3.388,0,4.68c-2.238,1.292-5.868,1.292-8.106,0
					c-2.238-1.292-2.238-3.388,0-4.68C345.497,96.21,349.126,96.21,351.365,97.503z"/>
				<g>
					<path style="fill:#E0E0E0;" d="M343.564,91.655v7.189c-0.004,0.557,0.361,1.114,1.097,1.538c1.464,0.845,3.838,0.845,5.302,0
						c0.732-0.423,1.098-0.977,1.098-1.531l0,0v-7.196H343.564z"/>
					<path style="fill:#F5F5F5;" d="M349.963,90.125c1.464,0.845,1.464,2.216,0,3.061c-1.464,0.845-3.838,0.845-5.302,0
						c-1.464-0.845-1.464-2.216,0-3.061C346.125,89.279,348.499,89.279,349.963,90.125z"/>
				</g>
			</g>
			<g>
				<path style="fill:#BA68C8;" d="M369.069,121.407h0.003v-12.301h-11.454v12.301h0.013c-0.035,0.872,0.513,1.751,1.666,2.417
					c2.238,1.292,5.868,1.292,8.106,0C368.556,123.158,369.104,122.279,369.069,121.407z"/>
				<path style="opacity:0.6;" d="M369.069,121.407h0.003v-12.301h-11.454v12.301h0.013c-0.035,0.872,0.513,1.751,1.666,2.417
					c2.238,1.292,5.868,1.292,8.106,0C368.556,123.158,369.104,122.279,369.069,121.407z"/>
				<path style="fill:#BA68C8;" d="M367.403,106.723c2.238,1.292,2.238,3.388,0,4.68c-2.238,1.292-5.868,1.292-8.106,0
					c-2.238-1.292-2.238-3.388,0-4.68C361.535,105.43,365.165,105.43,367.403,106.723z"/>
				<path style="opacity:0.4;" d="M367.403,106.723c2.238,1.292,2.238,3.388,0,4.68c-2.238,1.292-5.868,1.292-8.106,0
					c-2.238-1.292-2.238-3.388,0-4.68C361.535,105.43,365.165,105.43,367.403,106.723z"/>
				<g>
					<path style="fill:#E0E0E0;" d="M359.602,100.875v7.189c-0.003,0.556,0.361,1.114,1.097,1.538c1.464,0.845,3.838,0.845,5.302,0
						c0.732-0.423,1.098-0.976,1.098-1.53l0,0v-7.196H359.602z"/>
					<path style="fill:#F5F5F5;" d="M366.001,99.345c1.464,0.845,1.464,2.216,0,3.061c-1.464,0.845-3.838,0.845-5.302,0
						s-1.464-2.216,0-3.061C362.163,98.499,364.537,98.499,366.001,99.345z"/>
				</g>
			</g>
			<g>
				<path style="fill:#BA68C8;" d="M385.107,130.627h0.004v-12.301h-11.454v12.301h0.013c-0.035,0.872,0.513,1.751,1.666,2.417
					c2.238,1.292,5.868,1.292,8.106,0C384.594,132.378,385.142,131.499,385.107,130.627z"/>
				<path style="opacity:0.7;" d="M385.107,130.627h0.004v-12.301h-11.454v12.301h0.013c-0.035,0.872,0.513,1.751,1.666,2.417
					c2.238,1.292,5.868,1.292,8.106,0C384.594,132.378,385.142,131.499,385.107,130.627z"/>
				<path style="fill:#BA68C8;" d="M383.441,115.943c2.238,1.292,2.238,3.388,0,4.68c-2.238,1.292-5.868,1.292-8.106,0
					c-2.238-1.292-2.238-3.388,0-4.68C377.574,114.651,381.203,114.651,383.441,115.943z"/>
				<path style="opacity:0.6;" d="M383.441,115.943c2.238,1.292,2.238,3.388,0,4.68c-2.238,1.292-5.868,1.292-8.106,0
					c-2.238-1.292-2.238-3.388,0-4.68C377.574,114.651,381.203,114.651,383.441,115.943z"/>
				<g>
					<path style="fill:#E0E0E0;" d="M375.64,110.095v7.189c-0.003,0.557,0.361,1.114,1.097,1.538c1.464,0.845,3.838,0.845,5.302,0
						c0.732-0.423,1.098-0.977,1.098-1.531l0,0v-7.196H375.64z"/>
					<path style="fill:#F5F5F5;" d="M382.039,108.565c1.464,0.845,1.464,2.216,0,3.061c-1.464,0.845-3.838,0.845-5.302,0
						c-1.464-0.845-1.464-2.216,0-3.061C378.201,107.72,380.575,107.72,382.039,108.565z"/>
				</g>
			</g>
			<g>
				<path style="fill:#BA68C8;" d="M401.146,139.847h0.003v-12.301h-11.454v12.301h0.013c-0.035,0.872,0.513,1.751,1.666,2.416
					c2.238,1.292,5.868,1.292,8.106,0C400.632,141.598,401.18,140.719,401.146,139.847z"/>
				<path style="opacity:0.8;" d="M401.146,139.847h0.003v-12.301h-11.454v12.301h0.013c-0.035,0.872,0.513,1.751,1.666,2.416
					c2.238,1.292,5.868,1.292,8.106,0C400.632,141.598,401.18,140.719,401.146,139.847z"/>
				<path style="fill:#BA68C8;" d="M399.479,125.163c2.238,1.292,2.238,3.388,0,4.68c-2.238,1.292-5.868,1.292-8.106,0
					c-2.238-1.292-2.238-3.388,0-4.68C393.612,123.871,397.241,123.871,399.479,125.163z"/>
				<path style="opacity:0.7;" d="M399.479,125.163c2.238,1.292,2.238,3.388,0,4.68c-2.238,1.292-5.868,1.292-8.106,0
					c-2.238-1.292-2.238-3.388,0-4.68C393.612,123.871,397.241,123.871,399.479,125.163z"/>
				<g>
					<path style="fill:#E0E0E0;" d="M391.679,119.316v7.189c-0.003,0.556,0.361,1.114,1.097,1.538c1.464,0.845,3.838,0.845,5.302,0
						c0.732-0.423,1.098-0.977,1.098-1.53l0,0v-7.196H391.679z"/>
					<path style="fill:#F5F5F5;" d="M398.077,117.785c1.464,0.845,1.464,2.216,0,3.061s-3.838,0.845-5.302,0
						c-1.464-0.845-1.464-2.216,0-3.061C394.24,116.94,396.613,116.94,398.077,117.785z"/>
				</g>
			</g>
		</g>
	</g>
</g>
</svg>
